<?xml version="1.0" standalone="no"?>
<!DOCTYPE svg PUBLIC "-//W3C//DTD SVG 1.1//EN" "http://www.w3.org/Graphics/SVG/1.1/DTD/svg11.dtd" >
<svg xmlns="http://www.w3.org/2000/svg" xmlns:xlink="http://www.w3.org/1999/xlink" version="1.1">
<metadata>
Created by FontForge 20170731 at Thu Apr 22 11:08:57 2021
 By Aleksey,,,
Copyright (c) 2007 by Jonas Hecksher, Playtypea, e-Types AS. All rights reserved.
</metadata>
<defs>
<font id="AcademySans" horiz-adv-x="1153" >
  <font-face 
    font-family="Academy Sans"
    font-weight="400"
    font-stretch="normal"
    units-per-em="2048"
    panose-1="2 11 0 0 0 0 0 0 0 0"
    ascent="1536"
    descent="-512"
    x-height="1081"
    cap-height="1464"
    bbox="-18 -403 2449 1882"
    underline-thickness="102"
    underline-position="-307"
    unicode-range="U+0020-FB02"
  />
<missing-glyph horiz-adv-x="540" 
 />
    <glyph glyph-name=".notdef" horiz-adv-x="540" 
 />
    <glyph glyph-name=".null" horiz-adv-x="0" 
 />
    <glyph glyph-name="nonmarkingreturn" horiz-adv-x="682" 
 />
    <glyph glyph-name="space" unicode=" " horiz-adv-x="409" 
 />
    <glyph glyph-name="exclam" unicode="!" horiz-adv-x="577" 
d="M178 1464h219l-61 -1013h-94zM174 90q0 46 33.5 79.5t79.5 33.5q45 0 77.5 -33.5t32.5 -79.5t-32 -78t-78 -32t-79.5 32.5t-33.5 77.5z" />
    <glyph glyph-name="quotedbl" unicode="&#x22;" horiz-adv-x="757" 
d="M248 915h-86l-47 431v118h180v-118zM596 915h-86l-47 431v118h180v-118z" />
    <glyph glyph-name="numbersign" unicode="#" 
d="M684 1464h129v-479h244v-129h-244v-248h244v-131h-244v-477h-129v477h-213v-477h-131v477h-242v131h242v248h-242v129h242v479h131v-479h213v479zM471 856v-248h213v248h-213z" />
    <glyph glyph-name="dollar" unicode="$" 
d="M530 -20v208q-97 9 -196.5 44t-175.5 87l108 105q66 -47 156.5 -78t163.5 -31q134 0 225.5 54t91.5 145q0 52 -25 85.5t-67.5 49.5t-97.5 24.5t-116 14t-121.5 13.5t-115.5 27.5t-97.5 51.5t-67.5 90.5t-25 139.5q0 107 98 192t262 103v235h144v-237q176 -19 309 -117
l-96 -96q-65 40 -146 65t-147 25q-111 0 -186.5 -48.5t-75.5 -125.5q0 -66 40 -104.5t104 -52.5t142 -20.5t155.5 -19t141.5 -38t104 -86t40 -155.5q0 -67 -23 -122.5t-61 -93t-89 -65t-103.5 -41.5t-108.5 -20v-208h-144z" />
    <glyph glyph-name="percent" unicode="%" horiz-adv-x="1787" 
d="M109 1124q0 141 100 240.5t240 99.5q141 0 240 -99.5t99 -240.5q0 -140 -99 -240t-240 -100q-139 0 -239.5 100t-100.5 240zM252 1124q0 -82 57.5 -139t139.5 -57t139 57t57 139t-57 139.5t-139 57.5t-139.5 -57.5t-57.5 -139.5zM1270 1481h164l-924 -1501h-166zM999 322
q0 139 100.5 238t241.5 99q140 0 239 -99t99 -238q0 -141 -99.5 -241.5t-238.5 -100.5q-141 0 -241.5 100.5t-100.5 241.5zM1145 322q0 -82 57 -139.5t139 -57.5t139.5 57.5t57.5 139.5q0 80 -58 138t-139 58t-138.5 -58t-57.5 -138z" />
    <glyph glyph-name="ampersand" unicode="&#x26;" horiz-adv-x="1449" 
d="M860 678l168 -195q67 99 164 297l131 -78q-72 -184 -188 -342l315 -360h-219l-203 233q-236 -253 -481 -253q-117 0 -215 46.5t-160.5 143t-62.5 227.5q0 92 36.5 171.5t97.5 136t128.5 95.5t142.5 64q-57 108 -57 201q0 197 108.5 306.5t286.5 109.5q86 0 154.5 -26
t114 -73.5t73.5 -106t43 -130.5h-174q-20 86 -68 128t-141 42q-109 0 -163 -60.5t-54 -167.5q0 -92 52.5 -182t170.5 -227zM563 143q188 0 365 207l-246 285q-54 60 -94 115q-314 -123 -314 -336q0 -121 82.5 -196t206.5 -75z" />
    <glyph glyph-name="quotesingle" unicode="'" horiz-adv-x="409" 
d="M248 915h-86l-47 431v118h180v-118z" />
    <glyph glyph-name="parenleft" unicode="(" horiz-adv-x="679" 
d="M180 680q0 228 70 469t172 379h143q-90 -134 -149.5 -376.5t-59.5 -471.5t62 -486.5t149 -390.5h-153q-99 133 -166.5 387.5t-67.5 489.5z" />
    <glyph glyph-name="parenright" unicode=")" horiz-adv-x="679" 
d="M500 680q0 -234 -68.5 -489t-167.5 -388h-151q87 133 149 390.5t62 486.5q0 228 -60 470.5t-151 377.5h145q102 -138 172 -379t70 -469z" />
    <glyph glyph-name="asterisk" unicode="*" horiz-adv-x="937" 
d="M854 1149l-307 -62l203 -233l-129 -78l-158 252l-154 -252l-131 82l215 232l-311 57l51 139l285 -115l-29 293h164l-35 -299l285 119z" />
    <glyph glyph-name="plus" unicode="+" 
d="M154 586v145h350v350h145v-350h350v-145h-350v-353h-145v353h-350z" />
    <glyph glyph-name="comma" unicode="," horiz-adv-x="409" 
d="M68 90q0 46 33 79.5t79 33.5q45 0 77 -33.5t32 -79.5q0 -174 -170 -412h-90q109 213 123 306q-36 9 -60 38t-24 68z" />
    <glyph glyph-name="hyphen" unicode="-" horiz-adv-x="651" 
d="M53 586v145h543v-145h-543z" />
    <glyph glyph-name="period" unicode="." horiz-adv-x="409" 
d="M94 90q0 46 33.5 79.5t79.5 33.5q45 0 76.5 -33.5t31.5 -79.5t-31 -78t-77 -32t-79.5 32.5t-33.5 77.5z" />
    <glyph glyph-name="slash" unicode="/" horiz-adv-x="1089" 
d="M924 1481h166l-924 -1501h-166z" />
    <glyph glyph-name="zero" unicode="0" 
d="M575 121q75 0 129.5 47.5t85 133.5t44.5 192t14 237t-14 236t-45 191.5t-86 133.5t-132 47q-75 0 -129.5 -47t-84.5 -133.5t-44 -191.5t-14 -236q0 -610 276 -610zM575 -20q-103 0 -181 39.5t-127 106t-79.5 164.5t-42.5 204.5t-12 236.5q0 750 440 750q103 0 181 -39.5
t126.5 -106t79 -165t42.5 -204t12 -235.5q0 -106 -9.5 -198.5t-30 -178t-55.5 -153t-82.5 -117.5t-114 -77t-147.5 -27z" />
    <glyph glyph-name="one" unicode="1" 
d="M696 1464h107v-1464h-166v1059h-410v117q80 0 138 5.5t104.5 20t77.5 34t58.5 54.5t47 74t43.5 100z" />
    <glyph glyph-name="two" unicode="2" 
d="M848 1028q0 138 -78 224.5t-199 86.5q-120 0 -195 -86t-75 -225h-172q2 191 132.5 322t322.5 131q125 0 224 -61t151.5 -161.5t52.5 -218.5q0 -61 -19 -123.5t-43.5 -109t-70.5 -106t-75 -92t-83 -89.5l-369 -385h674v-135h-854v143l469 510q207 229 207 375z" />
    <glyph glyph-name="three" unicode="3" 
d="M158 1032v49q0 108 57 200.5t153 146t207 53.5q169 0 289.5 -118t120.5 -284q0 -182 -176 -307q215 -134 215 -352q0 -184 -131 -312t-318 -128q-188 0 -318 128t-130 312v49h166v-57q0 -119 81.5 -202t200.5 -83q118 0 200.5 83t82.5 202q0 116 -82.5 201t-200.5 85h-59
v142h59q104 0 177 74t73 176q0 103 -73 178t-177 75q-105 0 -178 -74.5t-73 -178.5v-58h-166z" />
    <glyph glyph-name="four" unicode="4" 
d="M770 0v303h-696v131l649 1030h215v-1034h139v-127h-139v-303h-168zM770 1290l-537 -860h537v860z" />
    <glyph glyph-name="five" unicode="5" 
d="M127 418h166q0 -137 81.5 -214t207.5 -77q119 0 207 92.5t88 210.5q0 127 -82.5 220t-212.5 93q-119 0 -207 -88l-144 25l105 784h612v-139h-475l-67 -487q102 55 192 55q197 0 320.5 -128.5t123.5 -324.5q0 -121 -62.5 -226.5t-168.5 -168.5t-229 -63q-194 0 -324.5 123
t-130.5 313z" />
    <glyph glyph-name="six" unicode="6" 
d="M858 1464l-268 -391q-14 -21 -85 -120.5t-104 -155.5q95 39 195 39q108 0 206 -53t160 -149.5t62 -211.5q0 -184 -131 -312t-318 -128q-188 0 -318 128t-130 312q0 90 21.5 176.5t63.5 169t81.5 145t97.5 147.5l15 21l262 383h190zM575 698q-119 0 -200.5 -83.5
t-81.5 -200.5q0 -119 81.5 -203t200.5 -84q118 0 200.5 84t82.5 203q0 116 -82.5 200t-200.5 84z" />
    <glyph glyph-name="seven" unicode="7" 
d="M258 0l596 1317h-754v147h928v-145l-584 -1319h-186z" />
    <glyph glyph-name="eight" unicode="8" 
d="M575 -20q-188 0 -318 128t-130 312q0 219 213 352q-176 127 -176 307q0 166 121 284t290 118t289.5 -118t120.5 -284q0 -182 -176 -307q215 -134 215 -352q0 -184 -131 -312t-318 -128zM575 698q-119 0 -200.5 -84.5t-81.5 -201.5q0 -119 81.5 -202t200.5 -83
q118 0 200.5 83t82.5 202q0 116 -82.5 201t-200.5 85zM575 1343q-105 0 -178 -74.5t-73 -178.5q0 -102 73 -176t178 -74q104 0 177 74t73 176q0 103 -73 178t-177 75z" />
    <glyph glyph-name="nine" unicode="9" 
d="M293 0l268 389q19 29 58.5 85t71.5 103.5t57 90.5q-93 -41 -195 -41q-108 0 -205.5 53t-159 149.5t-61.5 212.5q0 183 130.5 311t317.5 128q186 0 317.5 -128t131.5 -311q0 -90 -20.5 -175t-67.5 -174.5t-79.5 -141t-100.5 -149.5q-9 -13 -13 -19l-260 -383h-190z
M575 764q118 0 200.5 84.5t82.5 202.5q0 119 -82.5 201.5t-200.5 82.5q-119 0 -200.5 -82.5t-81.5 -201.5q0 -118 81.5 -202.5t200.5 -84.5z" />
    <glyph glyph-name="colon" unicode=":" horiz-adv-x="409" 
d="M94 90q0 46 33.5 79.5t79.5 33.5q45 0 76.5 -33.5t31.5 -79.5t-31 -78t-77 -32t-79.5 32.5t-33.5 77.5zM94 987q0 46 33.5 79.5t79.5 33.5q45 0 76.5 -33.5t31.5 -79.5t-31 -77t-77 -31t-79.5 31.5t-33.5 76.5z" />
    <glyph glyph-name="semicolon" unicode=";" horiz-adv-x="409" 
d="M94 90q0 46 33.5 79.5t79.5 33.5q45 0 76.5 -33.5t31.5 -79.5q0 -174 -170 -412h-90q109 213 123 306q-36 9 -60 38t-24 68zM94 987q0 46 33.5 79.5t79.5 33.5q45 0 76.5 -33.5t31.5 -79.5t-31 -77t-77 -31t-79.5 31.5t-33.5 76.5z" />
    <glyph glyph-name="less" unicode="&#x3c;" 
d="M299 655l700 -305v-172l-843 395v162l843 406v-164z" />
    <glyph glyph-name="equal" unicode="=" 
d="M154 422v145h845v-145h-845zM154 750v145h845v-145h-845z" />
    <glyph glyph-name="greater" unicode="&#x3e;" 
d="M156 350l700 305l-700 322v164l843 -406v-162l-843 -395v172z" />
    <glyph glyph-name="question" unicode="?" horiz-adv-x="991" 
d="M707 1098q0 120 -63 180.5t-169 60.5q-110 0 -176 -85.5t-66 -225.5h-172q2 195 116 324t302 129q191 0 295.5 -104.5t104.5 -286.5q0 -70 -21.5 -134t-53 -109.5t-69 -95t-69 -92t-53 -99.5t-21.5 -118h-164q0 77 28.5 152t70 135.5t82.5 118.5t69.5 123t28.5 127z
M401 90q0 46 33.5 79.5t79.5 33.5t78.5 -33.5t32.5 -79.5t-32.5 -78t-78.5 -32t-79.5 32.5t-33.5 77.5z" />
    <glyph glyph-name="at" unicode="@" horiz-adv-x="1671" 
d="M1075 391h-10q-33 -58 -114 -86.5t-156 -28.5q-62 0 -119 15t-107 47t-80 89.5t-30 133.5q0 75 29.5 133.5t79 93t107.5 51.5t120 17q160 0 270 -98v65q0 139 -52 201.5t-196 62.5q-106 0 -225 -73l-72 108q122 78 318 78q191 0 280.5 -84.5t89.5 -271.5v-332
q0 -55 17 -90t47 -35q41 0 73.5 43.5t50 106t26 118t8.5 93.5q0 149 -46.5 267.5t-128 193t-188 114t-229.5 39.5q-122 0 -225.5 -38.5t-183 -113.5t-124.5 -194.5t-45 -272.5q0 -296 155.5 -472.5t401.5 -176.5q88 0 174.5 18t145.5 46l43 -99q-88 -38 -176 -60t-207 -22
q-150 0 -277.5 52t-221.5 148.5t-147 242t-53 323.5q0 142 39.5 262.5t109 207t163 148t202 91t226.5 29.5q149 0 281 -47.5t233.5 -137t161 -231t59.5 -317.5q0 -133 -39.5 -239.5t-116 -169.5t-178.5 -63q-58 0 -101.5 31t-62.5 84zM817 743q-93 0 -153 -51.5t-60 -128.5
q0 -73 60.5 -124.5t152.5 -51.5q41 0 81 8.5t79 27t63.5 54t24.5 84.5t-24.5 86t-63.5 57t-79.5 29.5t-80.5 9.5z" />
    <glyph glyph-name="A" unicode="A" horiz-adv-x="1193" 
d="M217 0h-180l450 1464h218l452 -1464h-178l-129 436h-506zM596 1296l-213 -727h428z" />
    <glyph glyph-name="B" unicode="B" horiz-adv-x="1138" 
d="M852 778q213 -109 213 -360q0 -180 -135 -299t-346 -119h-422v1464h426q202 0 320 -104t118 -268q0 -101 -47 -186t-127 -128zM569 694h-241v-559h260q137 0 224 77t87 206q0 145 -89 210.5t-241 65.5zM588 1325h-260v-500h241q132 0 213.5 67t81.5 193
q0 109 -76.5 174.5t-199.5 65.5z" />
    <glyph glyph-name="C" unicode="C" horiz-adv-x="1165" 
d="M141 731q0 385 132.5 567.5t390.5 182.5q80 0 150.5 -23t121 -62t86 -85.5t57.5 -98.5l-159 -32q-30 54 -100 103.5t-158 49.5q-178 0 -266.5 -145.5t-88.5 -458.5q0 -311 93 -456.5t278 -145.5q92 0 167 54.5t101 119.5l160 -31q-59 -129 -168 -209.5t-266 -80.5
q-263 0 -397 181.5t-134 569.5z" />
    <glyph glyph-name="D" unicode="D" horiz-adv-x="1255" 
d="M162 1464h434q138 0 241.5 -51t168.5 -147.5t97 -230t32 -304.5q0 -349 -133.5 -540t-405.5 -191h-434v1464zM594 1325h-266v-1188h268q121 0 206.5 80t125 211.5t39.5 302.5q0 170 -40 301.5t-126 212t-207 80.5z" />
    <glyph glyph-name="E" unicode="E" horiz-adv-x="1028" 
d="M983 137v-137h-821v1464h778v-139h-612v-520h446v-127h-446v-541h655z" />
    <glyph glyph-name="F" unicode="F" horiz-adv-x="1028" 
d="M328 0h-166v1464h815v-139h-649v-528h518v-129h-518v-668z" />
    <glyph glyph-name="G" unicode="G" horiz-adv-x="1220" 
d="M653 -20q-256 0 -384 181t-128 570q0 385 132.5 567.5t390.5 182.5q80 0 150.5 -23t121 -62t86 -85.5t57.5 -98.5l-159 -32q-30 54 -100 103.5t-158 49.5q-178 0 -266.5 -145.5t-88.5 -458.5q0 -312 86.5 -457t261.5 -145q140 0 221.5 124.5t81.5 354.5h-262v129h430
v-129q0 -297 -127.5 -461.5t-345.5 -164.5z" />
    <glyph glyph-name="H" unicode="H" horiz-adv-x="1179" 
d="M852 1464h166v-1464h-166v674h-524v-674h-166v1464h166v-653h524v653z" />
    <glyph glyph-name="I" unicode="I" horiz-adv-x="489" 
d="M162 1464h166v-1464h-166v1464z" />
    <glyph glyph-name="J" unicode="J" horiz-adv-x="968" 
d="M203 424v-29q0 -141 58 -208.5t161 -67.5q217 0 217 274v1071h168v-1083q0 -191 -105.5 -297.5t-277.5 -106.5q-174 0 -280.5 106.5t-106.5 297.5v43h166z" />
    <glyph glyph-name="K" unicode="K" horiz-adv-x="1189" 
d="M889 1464h184l-379 -587l449 -877h-205l-344 719l-266 -381v-338h-166v1464h166v-905z" />
    <glyph glyph-name="L" unicode="L" horiz-adv-x="983" 
d="M946 137v-137h-784v1464h166v-1327h618z" />
    <glyph glyph-name="M" unicode="M" horiz-adv-x="1521" 
d="M1194 1212l-367 -864h-131l-368 864v-1212h-166v1464h221l377 -907l381 907h219v-1464h-166v1212z" />
    <glyph glyph-name="N" unicode="N" horiz-adv-x="1265" 
d="M1104 1464v-1464h-172l-610 1151v-1151h-160v1464h172l610 -1163v1163h160z" />
    <glyph glyph-name="O" unicode="O" horiz-adv-x="1327" 
d="M666 125q90 0 159.5 47t111 131t62.5 192t21 236t-21 235t-63 191t-112 131t-162 47q-90 0 -159.5 -47t-111.5 -131t-63 -191t-21 -235t21 -236t63.5 -192t112.5 -131t162 -47zM666 -20q-115 0 -205.5 39t-149.5 106.5t-98 164t-55.5 205.5t-16.5 236q0 126 17 235
t56.5 205t99 164t148.5 107t202 39q115 0 205 -39.5t149 -107t97.5 -164t54.5 -204.5t16 -235q0 -159 -29.5 -291.5t-90 -237t-162.5 -163.5t-238 -59z" />
    <glyph glyph-name="P" unicode="P" 
d="M162 0v1464h448q193 0 326 -127t133 -321q0 -188 -133.5 -316.5t-325.5 -128.5h-282v-571h-166zM588 1327h-260v-620h260q132 0 221.5 88t89.5 223q0 133 -90 221t-221 88z" />
    <glyph glyph-name="Q" unicode="Q" horiz-adv-x="1306" 
d="M1374 70v-168q-114 32 -243 55t-216 23h-249q-115 0 -205.5 39t-149.5 106.5t-98 164t-55.5 205.5t-16.5 236q0 126 17 235t56.5 205t99 164t148.5 107t202 39q115 0 205 -39.5t149 -107t97.5 -164t54.5 -204.5t16 -235q0 -193 -44.5 -350.5t-135.5 -257.5
q224 -15 368 -53zM666 125q90 0 159.5 47t111 131t62.5 192t21 236t-21 235t-63 191t-112 131t-162 47q-90 0 -159.5 -47t-111.5 -131t-63 -191t-21 -235t21 -236t63.5 -192t112.5 -131t162 -47z" />
    <glyph glyph-name="R" unicode="R" 
d="M162 0v1464h432q126 0 230 -54t165.5 -154.5t61.5 -227.5q0 -133 -71 -237t-189 -158l335 -633h-190l-301 594h-307v-594h-166zM569 1327h-241v-598h241q133 0 222.5 83t89.5 216t-89.5 216t-222.5 83z" />
    <glyph glyph-name="S" unicode="S" horiz-adv-x="1067" 
d="M72 340l159 63q30 -113 113 -192.5t193 -79.5q114 0 189 70t75 182q0 55 -23.5 99t-63.5 75t-92 57.5t-109 50.5t-114 49t-109 58.5t-92 74.5t-63.5 101t-23.5 133q0 180 109 290t300 110q137 0 248.5 -79t153.5 -200l-162 -53q-23 77 -96.5 128.5t-157.5 51.5
q-98 0 -162.5 -57t-64.5 -162q0 -68 38 -120.5t98.5 -87t134 -66t147 -68t134 -82t98.5 -119t38 -168.5q0 -190 -124 -304.5t-319 -114.5q-153 0 -281.5 100t-170.5 260z" />
    <glyph glyph-name="T" unicode="T" horiz-adv-x="1079" 
d="M37 1327v137h1007v-137h-421v-1327h-166v1327h-420z" />
    <glyph glyph-name="U" unicode="U" horiz-adv-x="1204" 
d="M328 1464v-1034q0 -152 77 -231.5t197 -79.5q122 0 197 80.5t75 228.5v1036h168v-1048q0 -201 -125 -320t-313 -119q-190 0 -316 118.5t-126 320.5v1048h166z" />
    <glyph glyph-name="V" unicode="V" horiz-adv-x="1193" 
d="M958 1464h181l-453 -1464h-180l-453 1464h180l363 -1251z" />
    <glyph glyph-name="W" unicode="W" horiz-adv-x="1980" 
d="M1735 1464h180l-416 -1464h-180l-330 1235l-327 -1235h-181l-415 1464h178l327 -1251l326 1251h184l328 -1251z" />
    <glyph glyph-name="X" unicode="X" horiz-adv-x="1183" 
d="M88 1464h186l318 -536l317 536h187l-412 -692l461 -772h-189l-364 614l-365 -614h-188l461 772z" />
    <glyph glyph-name="Y" unicode="Y" horiz-adv-x="1183" 
d="M1145 1464l-469 -784v-680h-166v680l-471 784h186l367 -633l369 633h184z" />
    <glyph glyph-name="Z" unicode="Z" horiz-adv-x="1069" 
d="M1008 137v-137h-947v137l723 1192h-684v135h865v-135l-723 -1192h766z" />
    <glyph glyph-name="bracketleft" unicode="[" horiz-adv-x="677" 
d="M641 -385h-412v2044h410v-141h-248v-1766h250v-137z" />
    <glyph glyph-name="backslash" unicode="\" horiz-adv-x="1089" 
d="M0 1481h166l924 -1501h-166z" />
    <glyph glyph-name="bracketright" unicode="]" horiz-adv-x="677" 
d="M449 -385h-412v137h250v1766h-250v141h412v-2044z" />
    <glyph glyph-name="asciicircum" unicode="^" horiz-adv-x="454" 
d="M-18 1028l139 436h194l158 -436h-143l-107 313l-98 -313h-143z" />
    <glyph glyph-name="underscore" unicode="_" horiz-adv-x="876" 
d="M0 -307v147h877v-147h-877z" />
    <glyph glyph-name="grave" unicode="`" horiz-adv-x="454" 
d="M233 1464l185 -256h-160l-221 256h196z" />
    <glyph glyph-name="a" unicode="a" horiz-adv-x="1069" 
d="M483 520q-109 0 -178 -59t-69 -148q0 -87 69.5 -147t177.5 -60q37 0 73.5 5.5t76 20t69.5 36.5t49 58.5t19 82.5q0 57 -28.5 100.5t-73.5 66.5t-92 33.5t-93 10.5zM66 311q0 70 22.5 128t60.5 97t88.5 66t105.5 39t112 12q89 0 165.5 -24.5t149.5 -91.5v125
q0 80 -12.5 134t-44 94t-88 58.5t-142.5 18.5q-126 0 -262 -72l-84 115q62 37 159.5 63.5t209.5 26.5q221 0 325.5 -98.5t104.5 -315.5v-686h-166v113q-40 -68 -134 -100.5t-181 -32.5q-57 0 -110 10t-104.5 34.5t-89.5 61.5t-61.5 95t-23.5 130z" />
    <glyph glyph-name="b" unicode="b" horiz-adv-x="1112" 
d="M133 1464l166 72v-565q44 50 136.5 89.5t174.5 39.5q183 0 281 -140.5t98 -424.5q0 -276 -106 -417t-289 -141q-81 0 -165 40.5t-130 93.5v-111h-166v1464zM823 537q0 426 -256 426q-70 0 -149 -37.5t-119 -73.5v-623q41 -37 120 -75.5t148 -38.5q126 0 191 101.5
t65 320.5z" />
    <glyph glyph-name="c" unicode="c" horiz-adv-x="964" 
d="M289 543q0 -158 28.5 -250t82 -129t141.5 -37q67 0 124 24.5t93 67.5l160 -31q-111 -208 -377 -208q-101 0 -175.5 29t-130.5 93.5t-84 175t-28 267.5t26 264.5t80.5 171.5t130 91.5t181.5 27.5q265 0 377 -207l-160 -33q-36 43 -93 67.5t-124 24.5q-90 0 -143 -34.5
t-81 -125t-28 -249.5z" />
    <glyph glyph-name="d" unicode="d" horiz-adv-x="1112" 
d="M813 0v111q-44 -51 -134.5 -91t-172.5 -40q-383 0 -383 555q0 565 391 565q81 0 168 -39t131 -90v493l166 72v-1536h-166zM289 537q0 -125 16.5 -209t50.5 -130t79 -64.5t110 -18.5q69 0 148 38.5t120 75.5v623q-40 36 -119 73.5t-149 37.5q-48 0 -83.5 -9t-69.5 -35.5
t-55.5 -72.5t-34.5 -124t-13 -185z" />
    <glyph glyph-name="e" unicode="e" horiz-adv-x="1079" 
d="M563 -20q-101 0 -178.5 29t-137.5 93t-92 175.5t-32 267.5q0 149 32.5 258.5t91.5 173t135 93.5t171 30t167 -31.5t126 -101t82 -187.5t28 -284h-667q6 -201 76 -285t198 -84q67 0 128.5 25.5t96.5 68.5l160 -33q-113 -208 -385 -208zM541 952q-77 0 -127.5 -28t-83 -102
t-39.5 -199h502q-3 75 -16.5 131.5t-41.5 102.5t-77 70.5t-117 24.5z" />
    <glyph glyph-name="f" unicode="f" horiz-adv-x="565" 
d="M520 1522q36 0 103 -15v-145q-47 14 -113 14q-91 0 -131.5 -42t-40.5 -148v-105h211v-139h-211v-942h-166v942h-154v139h154v101q0 183 86 261.5t262 78.5z" />
    <glyph glyph-name="g" unicode="g" horiz-adv-x="1112" 
d="M813 125q-45 -48 -135.5 -87.5t-171.5 -39.5q-183 0 -283 134.5t-100 412.5q0 281 103.5 418t287.5 137q81 0 168 -39t131 -90v110h166v-1038q0 -197 -115 -319.5t-303 -122.5q-265 0 -377 206l160 33q36 -43 93 -67.5t124 -24.5q116 0 184 77.5t68 192.5v107zM289 547
q0 -219 64.5 -316.5t191.5 -97.5q69 0 148 39t120 76v604q-40 36 -119 73.5t-149 37.5q-58 0 -102.5 -20t-80 -66t-54.5 -129t-19 -201z" />
    <glyph glyph-name="h" unicode="h" horiz-adv-x="1073" 
d="M133 1464l166 72v-565q44 51 134 90t173 39q332 0 332 -369v-731h-166v758q0 205 -209 205q-69 0 -146 -37t-118 -74v-852h-166v1464z" />
    <glyph glyph-name="i" unicode="i" horiz-adv-x="454" 
d="M143 1081h166v-1081h-166v1081zM125 1378q0 41 30.5 72t71.5 31t72 -31t31 -72t-31 -71.5t-72 -30.5t-71.5 30.5t-30.5 71.5z" />
    <glyph glyph-name="j" unicode="j" horiz-adv-x="454" 
d="M143 1081h166v-1464h-166v1464zM125 1378q0 41 30.5 72t71.5 31t72 -31t31 -72t-31 -71.5t-72 -30.5t-71.5 30.5t-30.5 71.5z" />
    <glyph glyph-name="k" unicode="k" horiz-adv-x="1050" 
d="M143 1464l166 72v-1042l465 587h195l-340 -393l422 -688h-191l-330 578l-221 -259v-319h-166v1464z" />
    <glyph glyph-name="l" unicode="l" horiz-adv-x="454" 
d="M143 1464l166 72v-1536h-166v1464z" />
    <glyph glyph-name="m" unicode="m" horiz-adv-x="1689" 
d="M133 1081h166v-110q44 51 134 90t173 39q216 0 287 -160q56 74 153.5 117t188.5 43q170 0 245.5 -94.5t75.5 -274.5v-731h-165v758q0 107 -49.5 156t-149.5 49q-72 0 -148 -35t-116 -76v-852h-166v758q0 107 -49.5 156t-149.5 49q-69 0 -146 -37t-118 -74v-852h-166v1081
z" />
    <glyph glyph-name="n" unicode="n" horiz-adv-x="1073" 
d="M133 1081h166v-110q44 51 134 90t173 39q332 0 332 -369v-731h-166v758q0 205 -209 205q-69 0 -146 -37t-118 -74v-852h-166v1081z" />
    <glyph glyph-name="o" unicode="o" horiz-adv-x="1114" 
d="M557 1100q121 0 209.5 -40.5t141 -115.5t77.5 -174t25 -225q0 -565 -453 -565q-121 0 -210 40.5t-142 116.5t-78 177.5t-25 230.5q0 126 25 225t78 174t142 115.5t210 40.5zM557 119q147 0 218 110t71 310q0 201 -71 311.5t-218 110.5t-219 -110.5t-72 -311.5
q0 -200 72 -310t219 -110z" />
    <glyph glyph-name="p" unicode="p" horiz-adv-x="1112" 
d="M133 1081h166v-110q44 50 136.5 89.5t174.5 39.5q183 0 281 -140.5t98 -424.5q0 -276 -106 -417t-289 -141q-81 0 -165 40.5t-130 93.5v-494h-166v1464zM823 537q0 426 -256 426q-70 0 -149 -37.5t-119 -73.5v-623q41 -37 120 -75.5t148 -38.5q126 0 191 101.5t65 320.5z
" />
    <glyph glyph-name="q" unicode="q" horiz-adv-x="1112" 
d="M813 106q-45 -48 -135.5 -87t-171.5 -39q-383 0 -383 555q0 565 391 565q81 0 168 -39t131 -90v110h166v-1464h-166v489zM289 537q0 -230 63.5 -326t192.5 -96q69 0 148 38.5t120 75.5v623q-40 36 -119 73.5t-149 37.5q-59 0 -102.5 -18.5t-80 -64t-55 -131.5t-18.5 -212
z" />
    <glyph glyph-name="r" unicode="r" horiz-adv-x="679" 
d="M643 1100l-2 -174q-32 4 -68 4q-108 0 -191 -81t-83 -206v-643h-166v1081h166v-221q40 114 129 177t215 63z" />
    <glyph glyph-name="s" unicode="s" horiz-adv-x="937" 
d="M883 319q0 -161 -114.5 -251.5t-307.5 -90.5q-110 0 -226 39t-174 93l111 110q50 -39 135.5 -72.5t165.5 -33.5q112 0 179 52t67 132q0 26 -5 47t-16.5 37t-24 28.5t-35.5 22.5t-41.5 16.5t-52 13.5t-57 11t-65.5 10q-55 8 -99 19t-91.5 33.5t-79 54t-52 82.5t-20.5 116
q0 142 107.5 227t287.5 85q223 0 359 -109l-105 -112q-44 34 -111.5 58t-140.5 24q-99 0 -164 -42.5t-65 -115.5q0 -90 56.5 -126t199.5 -54q87 -11 151 -30t118 -53t82 -89.5t28 -131.5z" />
    <glyph glyph-name="t" unicode="t" horiz-adv-x="604" 
d="M375 0h-166v940h-191v141h191v262l166 35v-297h211v-141h-211v-940z" />
    <glyph glyph-name="u" unicode="u" horiz-adv-x="1060" 
d="M928 0h-166v102q-53 -49 -137 -84.5t-158 -35.5q-334 0 -334 368v731h166v-757q0 -205 211 -205q64 0 140 25t112 51v886h166v-1081z" />
    <glyph glyph-name="v" unicode="v" horiz-adv-x="1003" 
d="M788 1081h162l-370 -1081h-158l-369 1081h178l271 -864z" />
    <glyph glyph-name="w" unicode="w" horiz-adv-x="1572" 
d="M1368 1081h162l-334 -1081h-158l-252 819l-254 -819h-157l-332 1081h176l236 -864l268 864h141l254 -864z" />
    <glyph glyph-name="x" unicode="x" horiz-adv-x="991" 
d="M57 1081h195l250 -387l243 387h187l-336 -516l377 -565h-193l-286 438l-285 -438h-191l381 567z" />
    <glyph glyph-name="y" unicode="y" horiz-adv-x="1003" 
d="M293 -383l127 385l-367 1079h178l271 -864l286 864h162l-499 -1464h-158z" />
    <glyph glyph-name="z" unicode="z" horiz-adv-x="870" 
d="M813 139v-139h-764v150l584 790h-561v141h741v-151l-584 -791h584z" />
    <glyph glyph-name="braceleft" unicode="{" horiz-adv-x="714" 
d="M246 653q31 -17 61 -45t60.5 -69.5t49.5 -101t19 -126.5v-311q0 -121 64.5 -180.5t161.5 -59.5v-143q-171 0 -279.5 104t-108.5 261v319q0 112 -56 194.5t-140 82.5v155q84 0 140 84t56 195v284q0 157 108.5 261t279.5 104v-143q-97 0 -161.5 -59.5t-64.5 -180.5v-274
q0 -67 -19 -128t-49.5 -104t-61 -72t-60.5 -47z" />
    <glyph glyph-name="bar" unicode="|" horiz-adv-x="724" 
d="M293 1481h131v-1866h-131v1866z" />
    <glyph glyph-name="braceright" unicode="}" horiz-adv-x="714" 
d="M469 653q-30 18 -60.5 47t-61 72t-49.5 104t-19 128v274q0 121 -64.5 180.5t-161.5 59.5v143q171 0 279 -104t108 -261v-284q0 -111 56.5 -195t140.5 -84v-155q-84 0 -140.5 -82.5t-56.5 -194.5v-319q0 -157 -108 -261t-279 -104v143q97 0 161.5 59.5t64.5 180.5v311
q0 67 19 126.5t49.5 101t60.5 69.5t61 45z" />
    <glyph glyph-name="asciitilde" unicode="~" 
d="M776 569q-52 0 -128.5 37.5t-149 75t-115.5 37.5q-106 0 -158 -127h-114q24 105 101 178.5t173 73.5q58 0 136 -36t148.5 -72t110.5 -36q56 0 87.5 32t56.5 95h120q-24 -110 -97 -184t-171 -74z" />
    <glyph glyph-name="exclamdown" unicode="&#xa1;" horiz-adv-x="577" 
d="M395 -2h-221l64 1014h94zM397 1372q0 -46 -32 -79t-78 -33t-78.5 33t-32.5 79t32.5 77.5t78.5 31.5t78 -31.5t32 -77.5z" />
    <glyph glyph-name="cent" unicode="&#xa2;" 
d="M608 -20v188q-207 30 -341 182t-134 373q0 219 134.5 373t340.5 184v260h144v-258q192 -18 329 -139l-127 -90q-53 41 -121.5 66.5t-138.5 25.5q-169 0 -287 -124t-118 -298q0 -110 49 -206t143.5 -156t214.5 -60q145 0 260 96l131 -90q-137 -128 -335 -143v-184h-144z
" />
    <glyph glyph-name="sterling" unicode="&#xa3;" 
d="M201 0v926q0 157 26 264.5t79.5 171.5t128.5 91.5t181 27.5q265 0 377 -207l-159 -33q-35 43 -93 67.5t-125 24.5q-90 0 -142.5 -34.5t-80.5 -125t-28 -249.5v-142h438v-147h-438v-498h618v-137h-782z" />
    <glyph glyph-name="currency" unicode="&#xa4;" 
d="M360 485l-104 -102l-74 72l105 106q-68 96 -68 209q0 123 72 217l-109 111l74 73l111 -108q100 72 208 72q113 0 213 -72l111 108l72 -73l-109 -113q72 -94 72 -215q0 -111 -68 -207l105 -108l-72 -72l-108 104q-84 -75 -216 -75q-127 0 -215 73zM324 770
q0 -103 71.5 -181.5t177.5 -78.5q109 0 182.5 77t73.5 183q0 111 -71.5 187.5t-182.5 76.5q-112 0 -181.5 -76.5t-69.5 -187.5z" />
    <glyph glyph-name="yen" unicode="&#xa5;" 
d="M154 623v147h288l-344 694h187l293 -633l292 633h189l-348 -694h288v-147h-333v-181h333v-147h-333v-295h-179v295h-333v147h333v181h-333z" />
    <glyph glyph-name="brokenbar" unicode="&#xa6;" horiz-adv-x="724" 
d="M293 553h131v-938h-131v938zM293 1481h131v-830h-131v830z" />
    <glyph glyph-name="section" unicode="&#xa7;" 
d="M571 -270q125 0 210 69.5t85 163.5q0 66 -43.5 110t-112.5 67t-153 42t-168 44t-153 62.5t-112.5 108t-43.5 170.5q0 79 63 158.5t166 126.5q-176 99 -176 295q0 145 124 239.5t302 94.5q99 0 204 -32t185 -89l-96 -96q-67 39 -148 63.5t-145 24.5q-116 0 -186 -59.5
t-70 -149.5q0 -66 42 -111t108.5 -69.5t147.5 -44t162 -43.5t147.5 -59t108.5 -100t42 -157q0 -107 -57.5 -184.5t-151.5 -124.5q172 -90 172 -270q0 -94 -42.5 -169.5t-110 -119.5t-143 -67t-150.5 -23q-121 0 -243.5 35.5t-213.5 97.5l110 104q68 -48 159.5 -78t180.5 -30
zM903 543q0 30 -9.5 55.5t-24 44t-41 35t-49 26.5t-62 22t-65.5 18t-73 16.5t-73 17.5q-101 -6 -178.5 -72.5t-77.5 -142.5q0 -31 10.5 -58t25.5 -46t43.5 -36t52 -28t65 -23.5t69 -19t76.5 -17.5t76 -18q100 20 167.5 84.5t67.5 141.5z" />
    <glyph glyph-name="dieresis" unicode="&#xa8;" horiz-adv-x="454" 
d="M262 1405q0 38 29 66t67 28q40 0 68.5 -28t28.5 -66q0 -40 -28.5 -68t-68.5 -28q-39 0 -67.5 28.5t-28.5 67.5zM0 1405q0 38 28 66t68 28q38 0 66 -28t28 -66q0 -40 -28 -68t-66 -28q-40 0 -68 28t-28 68z" />
    <glyph glyph-name="copyright" unicode="&#xa9;" horiz-adv-x="1624" 
d="M440 733q0 154 113 264.5t268 110.5q120 0 216 -66t139 -174l-125 -39q-26 70 -88.5 112t-141.5 42q-104 0 -173.5 -71t-69.5 -177t69.5 -179t173.5 -73q79 0 141.5 42t88.5 112l125 -41q-44 -105 -140 -171.5t-215 -66.5q-156 0 -268.5 110t-112.5 265zM61 729
q0 153 59.5 292.5t160 240t239 160t291.5 59.5t292 -59.5t240 -160t160.5 -240t59.5 -292.5q0 -152 -59.5 -291t-160.5 -239t-240 -159.5t-292 -59.5t-291.5 59.5t-239 159.5t-160 239t-59.5 291zM211 731q0 -170 79 -311t217 -222t304 -81q169 0 307.5 81t216.5 221.5
t78 311.5q0 128 -46 242t-125.5 196t-191.5 129.5t-239 47.5q-166 0 -304 -81t-217 -222.5t-79 -311.5z" />
    <glyph glyph-name="ordfeminine" unicode="&#xaa;" horiz-adv-x="802" 
d="M365 1087q-65 0 -107.5 -35t-42.5 -89q0 -53 43 -88t107 -35q28 0 55.5 5.5t55.5 18.5t45.5 38t17.5 59q0 63 -56 94.5t-118 31.5zM80 961q0 114 78.5 173.5t185.5 59.5q115 0 195 -74v68q0 98 -37.5 142t-136.5 44q-97 0 -181 -53l-61 94q42 27 111 46.5t145 19.5
q150 0 220.5 -65.5t70.5 -211.5v-454h-131v59q-85 -72 -195 -72q-49 0 -93.5 11.5t-84 36t-63 70t-23.5 106.5zM94 537v100h576v-100h-576z" />
    <glyph glyph-name="guillemotleft" unicode="&#xab;" horiz-adv-x="800" 
d="M416 1006l-209 -406l209 -412h-160l-219 406l219 412h160zM764 1006l-209 -406l209 -412h-160l-219 406l219 412h160z" />
    <glyph glyph-name="logicalnot" unicode="&#xac;" 
d="M154 586v145h845v-498h-145v353h-700z" />
    <glyph glyph-name="uni00AD" unicode="&#xad;" horiz-adv-x="0" 
 />
    <glyph glyph-name="registered" unicode="&#xae;" horiz-adv-x="1624" 
d="M885 633h-201v-264h-131v723h332q97 0 165 -68t68 -164q0 -57 -29.5 -111t-78.5 -90l131 -290h-146zM684 979v-244h190q45 0 79 37.5t34 83.5q0 48 -34 85.5t-79 37.5h-190zM61 729q0 153 59.5 292.5t160 240t239 160t291.5 59.5t292 -59.5t240 -160t160.5 -240
t59.5 -292.5q0 -152 -59.5 -291t-160.5 -239t-240 -159.5t-292 -59.5t-291.5 59.5t-239 159.5t-160 239t-59.5 291zM211 731q0 -170 79 -311t217 -222t304 -81q169 0 307.5 81t216.5 221.5t78 311.5q0 128 -46 242t-125.5 196t-191.5 129.5t-239 47.5q-166 0 -304 -81
t-217 -222.5t-79 -311.5z" />
    <glyph glyph-name="macron" unicode="&#xaf;" horiz-adv-x="669" 
d="M53 1333v131h563v-131h-563z" />
    <glyph glyph-name="degree" unicode="&#xb0;" horiz-adv-x="860" 
d="M90 1124q0 141 100 240.5t240 99.5q141 0 240.5 -99.5t99.5 -240.5q0 -140 -99.5 -240t-240.5 -100q-140 0 -240 100t-100 240zM233 1124q0 -82 57.5 -139t139.5 -57t139.5 57t57.5 139t-57.5 139.5t-139.5 57.5t-139.5 -57.5t-57.5 -139.5z" />
    <glyph glyph-name="plusminus" unicode="&#xb1;" 
d="M154 586v145h350v350h145v-350h350v-145h-350v-353h-145v353h-350zM154 0v145h845v-145h-845z" />
    <glyph glyph-name="twosuperior" unicode="&#xb2;" horiz-adv-x="720" 
d="M467 1219q0 61 -32 99t-85 38q-51 0 -80.5 -45t-29.5 -119h-150q0 122 77 205.5t189 83.5q113 0 186.5 -79t73.5 -190q0 -46 -22.5 -95t-45.5 -78t-63 -72l-192 -199h328v-119h-510v109l290 311q66 73 66 150z" />
    <glyph glyph-name="threesuperior" unicode="&#xb3;" horiz-adv-x="720" 
d="M104 1194v49q0 99 73.5 168.5t172.5 69.5q102 0 175 -69.5t73 -168.5q0 -97 -72 -162q92 -73 92 -184q0 -109 -77.5 -183.5t-190.5 -74.5q-109 0 -185.5 75t-76.5 183v49h143v-55q0 -52 34.5 -88.5t84.5 -36.5q52 0 87.5 36t35.5 89q0 52 -35.5 89.5t-87.5 37.5h-57v123
h57q44 0 75.5 32t31.5 76q0 45 -31.5 78t-75.5 33q-41 0 -70.5 -33t-29.5 -78v-55h-146z" />
    <glyph glyph-name="acute" unicode="&#xb4;" horiz-adv-x="454" 
d="M37 1208l184 256h197l-221 -256h-160z" />
    <glyph glyph-name="mu" unicode="&#xb5;" horiz-adv-x="1060" 
d="M928 0h-166v102q-53 -49 -137 -84.5t-158 -35.5q-96 0 -168 32v-397h-166v1464h166v-757q0 -205 211 -205q64 0 140 25t112 51v886h166v-1081z" />
    <glyph glyph-name="mu" unicode="&#x3bc;" horiz-adv-x="1060" 
d="M928 0h-166v102q-53 -49 -137 -84.5t-158 -35.5q-96 0 -168 32v-397h-166v1464h166v-757q0 -205 211 -205q64 0 140 25t112 51v886h166v-1081z" />
    <glyph glyph-name="paragraph" unicode="&#xb6;" horiz-adv-x="972" 
d="M838 -385h-109v1745h-211v-1745h-110v1227q-163 0 -242.5 87t-79.5 224q0 311 322 311h430v-1849z" />
    <glyph glyph-name="periodcentered" unicode="&#xb7;" horiz-adv-x="409" 
d="M94 707q0 46 33.5 79t79.5 33q45 0 76.5 -33t31.5 -79t-31.5 -78.5t-76.5 -32.5q-46 0 -79.5 32.5t-33.5 78.5z" />
    <glyph glyph-name="cedilla" unicode="&#xb8;" horiz-adv-x="526" 
d="M252 -403q-105 0 -155.5 37t-59.5 90h131q14 -50 84 -50q52 0 73 15.5t21 48.5q0 44 -30 56.5t-113 12.5h-84v97h162q85 0 138.5 -47t53.5 -109q0 -48 -17.5 -79.5t-51 -46.5t-68.5 -20t-84 -5z" />
    <glyph glyph-name="onesuperior" unicode="&#xb9;" horiz-adv-x="720" 
d="M358 1464h107v-815h-143v559h-218v111q128 0 174 27t80 118z" />
    <glyph glyph-name="ordmasculine" unicode="&#xba;" horiz-adv-x="833" 
d="M418 1481q163 0 228 -85.5t65 -283.5q0 -202 -65 -288.5t-228 -86.5q-165 0 -230 86.5t-65 288.5q0 198 65 283.5t230 85.5zM418 846q89 0 126.5 58t37.5 204q0 147 -37.5 206.5t-126.5 59.5q-92 0 -130 -59t-38 -207q0 -146 38 -204t130 -58zM127 537v100h578v-100h-578
z" />
    <glyph glyph-name="guillemotright" unicode="&#xbb;" horiz-adv-x="800" 
d="M244 600l-207 406h158l221 -412l-221 -406h-158zM592 600l-207 406h158l221 -412l-221 -406h-158z" />
    <glyph glyph-name="onequarter" unicode="&#xbc;" horiz-adv-x="1789" 
d="M1292 1481h166l-926 -1501h-163zM358 1464h107v-815h-143v559h-218v111q128 0 174 27t80 118zM1446 0v158h-369v98l359 565h153v-545h76v-118h-76v-158h-143zM1446 608l-211 -332h211v332z" />
    <glyph glyph-name="onehalf" unicode="&#xbd;" horiz-adv-x="1789" 
d="M1292 1481h166l-926 -1501h-163zM1534 569q0 62 -32.5 100t-84.5 38q-51 0 -80.5 -45t-29.5 -119h-150q0 122 77 205t189 83q113 0 186.5 -78.5t73.5 -189.5q0 -36 -8.5 -67.5t-27.5 -61t-35 -49.5t-45 -51l-207 -215h328v-119h-510v109l305 327q51 55 51 133zM358 1464
h107v-815h-143v559h-218v111q128 0 174 27t80 118z" />
    <glyph glyph-name="threequarters" unicode="&#xbe;" horiz-adv-x="1789" 
d="M1446 0v158h-369v98l359 565h153v-545h76v-118h-76v-158h-143zM1446 608l-211 -332h211v332zM1292 1481h166l-926 -1501h-163zM113 1202v45q0 98 71 167t168 69q99 0 169.5 -69t70.5 -167q0 -95 -74 -162q94 -72 94 -186q0 -108 -75.5 -182t-184.5 -74q-108 0 -182 74
t-74 182v45h127v-51q0 -54 37.5 -92.5t91.5 -38.5q55 0 93 38.5t38 92.5q0 53 -38 92t-93 39h-51v117h51q47 0 81 33t34 79t-34 80.5t-81 34.5q-45 0 -77.5 -34.5t-32.5 -80.5v-51h-129z" />
    <glyph glyph-name="questiondown" unicode="&#xbf;" horiz-adv-x="991" 
d="M285 362q0 -120 62.5 -180.5t168.5 -60.5q110 0 176 85.5t66 225.5h172q-2 -195 -116 -323.5t-302 -128.5q-191 0 -295 104.5t-104 286.5q0 82 29.5 155.5t71.5 128t84 108t71.5 119t29.5 136.5h164q0 -77 -28.5 -152t-69.5 -135.5t-82 -118.5t-69.5 -123t-28.5 -127z
M590 1370q0 -46 -33.5 -79.5t-79.5 -33.5q-45 0 -77.5 33.5t-32.5 79.5t32 78.5t78 32.5t79.5 -32.5t33.5 -78.5z" />
    <glyph glyph-name="Agrave" unicode="&#xc0;" horiz-adv-x="1193" 
d="M217 0h-180l450 1464h218l452 -1464h-178l-129 436h-506zM596 1296l-213 -727h428zM492 1847l184 -256h-160l-221 256h197z" />
    <glyph glyph-name="Aacute" unicode="&#xc1;" horiz-adv-x="1193" 
d="M217 0h-180l450 1464h218l452 -1464h-178l-129 436h-506zM596 1296l-213 -727h428zM510 1591l184 256h197l-221 -256h-160z" />
    <glyph glyph-name="Acircumflex" unicode="&#xc2;" horiz-adv-x="1193" 
d="M217 0h-180l450 1464h218l452 -1464h-178l-129 436h-506zM596 1296l-213 -727h428zM350 1591l148 256h178l166 -256h-123l-127 133l-119 -133h-123z" />
    <glyph glyph-name="Atilde" unicode="&#xc3;" horiz-adv-x="1193" 
d="M217 0h-180l450 1464h218l452 -1464h-178l-129 436h-506zM596 1296l-213 -727h428zM705 1657q-59 0 -124.5 33.5t-99.5 33.5q-27 0 -53.5 -22t-36.5 -45l-76 59q17 43 71 78t103 35q42 0 87.5 -17t81 -34t53.5 -17q27 0 54.5 22.5t37.5 45.5l76 -60q-17 -43 -71 -77.5
t-103 -34.5z" />
    <glyph glyph-name="Adieresis" unicode="&#xc4;" horiz-adv-x="1193" 
d="M217 0h-180l450 1464h218l452 -1464h-178l-129 436h-506zM596 1296l-213 -727h428zM631 1729q0 38 29 66t67 28q40 0 68 -28t28 -66q0 -40 -28 -68.5t-68 -28.5q-39 0 -67.5 29t-28.5 68zM369 1729q0 38 28 66t68 28q38 0 66 -28t28 -66q0 -40 -28 -68.5t-66 -28.5
q-40 0 -68 28.5t-28 68.5z" />
    <glyph glyph-name="Aring" unicode="&#xc5;" horiz-adv-x="1193" 
d="M332 1415q0 110 77.5 187t186.5 77q110 0 188 -77t78 -187q0 -115 -84 -192l379 -1223h-178l-129 436h-506l-127 -436h-180l377 1223q-82 76 -82 192zM596 1149q-17 0 -41 4l-172 -584h428l-172 584q-28 -4 -43 -4zM467 1415q0 -54 37.5 -92.5t91.5 -38.5q56 0 93.5 38
t37.5 93q0 57 -37 93t-94 36q-55 0 -92 -36.5t-37 -92.5z" />
    <glyph glyph-name="AE" unicode="&#xc6;" horiz-adv-x="1753" 
d="M221 0h-184l661 1464h969v-139h-577v-520h409v-127h-409v-541h618v-137h-784v436h-510zM803 1327l-332 -758h453v758h-121z" />
    <glyph glyph-name="Ccedilla" unicode="&#xc7;" horiz-adv-x="1165" 
d="M141 731q0 385 132.5 567.5t390.5 182.5q80 0 150.5 -23t121 -62t86 -85.5t57.5 -98.5l-159 -32q-30 54 -100 103.5t-158 49.5q-178 0 -266.5 -145.5t-88.5 -458.5q0 -311 93 -456.5t278 -145.5q92 0 167 54.5t101 119.5l160 -31q-59 -129 -168 -209.5t-266 -80.5
q-263 0 -397 181.5t-134 569.5zM618 -403q-105 0 -155.5 37t-59.5 90h132q14 -50 83 -50q52 0 73.5 15.5t21.5 48.5q0 44 -30.5 56.5t-113.5 12.5h-84v97h162q85 0 139 -47t54 -109q0 -39 -12.5 -67t-32 -44t-50 -25t-59.5 -12t-68 -3z" />
    <glyph glyph-name="Egrave" unicode="&#xc8;" horiz-adv-x="1028" 
d="M983 137v-137h-821v1464h778v-139h-612v-520h446v-127h-446v-541h655zM512 1847l184 -256h-159l-222 256h197z" />
    <glyph glyph-name="Eacute" unicode="&#xc9;" horiz-adv-x="1028" 
d="M983 137v-137h-821v1464h778v-139h-612v-520h446v-127h-446v-541h655zM414 1591l184 256h197l-222 -256h-159z" />
    <glyph glyph-name="Ecircumflex" unicode="&#xca;" horiz-adv-x="1028" 
d="M983 137v-137h-821v1464h778v-139h-612v-520h446v-127h-446v-541h655zM268 1591l148 256h178l166 -256h-123l-127 133l-119 -133h-123z" />
    <glyph glyph-name="Edieresis" unicode="&#xcb;" horiz-adv-x="1028" 
d="M983 137v-137h-821v1464h778v-139h-612v-520h446v-127h-446v-541h655zM549 1788q0 38 29 66t67 28q40 0 68 -28t28 -66q0 -40 -28 -68t-68 -28q-39 0 -67.5 28.5t-28.5 67.5zM287 1788q0 38 28 66t68 28q38 0 66 -28t28 -66q0 -40 -28 -68t-66 -28q-40 0 -68 28t-28 68z
" />
    <glyph glyph-name="Igrave" unicode="&#xcc;" horiz-adv-x="501" 
d="M162 1464h166v-1464h-166v1464zM256 1847l184 -256h-159l-222 256h197z" />
    <glyph glyph-name="Iacute" unicode="&#xcd;" horiz-adv-x="501" 
d="M162 1464h166v-1464h-166v1464zM59 1591l185 256h196l-221 -256h-160z" />
    <glyph glyph-name="Icircumflex" unicode="&#xce;" horiz-adv-x="501" 
d="M162 1464h166v-1464h-166v1464zM4 1591l148 256h178l166 -256h-123l-127 133l-119 -133h-123z" />
    <glyph glyph-name="Idieresis" unicode="&#xcf;" horiz-adv-x="501" 
d="M162 1464h166v-1464h-166v1464zM285 1788q0 38 29 66t67 28q40 0 68 -28t28 -66q0 -40 -28 -68t-68 -28q-39 0 -67.5 28.5t-28.5 67.5zM23 1788q0 38 28 66t68 28q38 0 66 -28t28 -66q0 -40 -28 -68t-66 -28q-40 0 -68 28t-28 68z" />
    <glyph glyph-name="Eth" unicode="&#xd0;" horiz-adv-x="1255" 
d="M162 1464h434q138 0 241.5 -51t168.5 -147.5t97 -230t32 -304.5q0 -349 -133.5 -540t-405.5 -191h-434v678h-109v135h109v651zM594 1325h-266v-512h268v-135h-268v-541h268q121 0 206.5 80t125 211.5t39.5 302.5q0 170 -40 301.5t-126 212t-207 80.5z" />
    <glyph glyph-name="Ntilde" unicode="&#xd1;" horiz-adv-x="1265" 
d="M1104 1464v-1464h-172l-610 1151v-1151h-160v1464h172l610 -1163v1163h160zM741 1657q-59 0 -124 33.5t-99 33.5q-27 0 -53.5 -22t-36.5 -45l-76 59q17 43 71 78t103 35q42 0 87.5 -17t81 -34t53.5 -17q27 0 54.5 22.5t37.5 45.5l75 -60q-17 -43 -71 -77.5t-103 -34.5z
" />
    <glyph glyph-name="Ograve" unicode="&#xd2;" horiz-adv-x="1327" 
d="M666 125q90 0 159.5 47t111 131t62.5 192t21 236t-21 235t-63 191t-112 131t-162 47q-90 0 -159.5 -47t-111.5 -131t-63 -191t-21 -235t21 -236t63.5 -192t112.5 -131t162 -47zM666 -20q-115 0 -205.5 39t-149.5 106.5t-98 164t-55.5 205.5t-16.5 236q0 126 17 235
t56.5 205t99 164t148.5 107t202 39q115 0 205 -39.5t149 -107t97.5 -164t54.5 -204.5t16 -235q0 -159 -29.5 -291.5t-90 -237t-162.5 -163.5t-238 -59zM524 1847l185 -256h-160l-221 256h196z" />
    <glyph glyph-name="Oacute" unicode="&#xd3;" horiz-adv-x="1327" 
d="M666 125q90 0 159.5 47t111 131t62.5 192t21 236t-21 235t-63 191t-112 131t-162 47q-90 0 -159.5 -47t-111.5 -131t-63 -191t-21 -235t21 -236t63.5 -192t112.5 -131t162 -47zM666 -20q-115 0 -205.5 39t-149.5 106.5t-98 164t-55.5 205.5t-16.5 236q0 126 17 235
t56.5 205t99 164t148.5 107t202 39q115 0 205 -39.5t149 -107t97.5 -164t54.5 -204.5t16 -235q0 -159 -29.5 -291.5t-90 -237t-162.5 -163.5t-238 -59zM547 1591l184 256h197l-221 -256h-160z" />
    <glyph glyph-name="Ocircumflex" unicode="&#xd4;" horiz-adv-x="1327" 
d="M666 125q90 0 159.5 47t111 131t62.5 192t21 236t-21 235t-63 191t-112 131t-162 47q-90 0 -159.5 -47t-111.5 -131t-63 -191t-21 -235t21 -236t63.5 -192t112.5 -131t162 -47zM666 -20q-115 0 -205.5 39t-149.5 106.5t-98 164t-55.5 205.5t-16.5 236q0 126 17 235
t56.5 205t99 164t148.5 107t202 39q115 0 205 -39.5t149 -107t97.5 -164t54.5 -204.5t16 -235q0 -159 -29.5 -291.5t-90 -237t-162.5 -163.5t-238 -59zM416 1591l147 256h178l166 -256h-123l-127 133l-118 -133h-123z" />
    <glyph glyph-name="Otilde" unicode="&#xd5;" horiz-adv-x="1327" 
d="M666 125q90 0 159.5 47t111 131t62.5 192t21 236t-21 235t-63 191t-112 131t-162 47q-90 0 -159.5 -47t-111.5 -131t-63 -191t-21 -235t21 -236t63.5 -192t112.5 -131t162 -47zM666 -20q-115 0 -205.5 39t-149.5 106.5t-98 164t-55.5 205.5t-16.5 236q0 126 17 235
t56.5 205t99 164t148.5 107t202 39q115 0 205 -39.5t149 -107t97.5 -164t54.5 -204.5t16 -235q0 -159 -29.5 -291.5t-90 -237t-162.5 -163.5t-238 -59zM770 1657q-59 0 -124 33.5t-99 33.5q-27 0 -53.5 -22t-36.5 -45l-76 59q17 43 71 78t103 35q42 0 87 -17t80.5 -34
t53.5 -17q27 0 54.5 22.5t37.5 45.5l76 -60q-17 -43 -71 -77.5t-103 -34.5z" />
    <glyph glyph-name="Odieresis" unicode="&#xd6;" horiz-adv-x="1327" 
d="M666 125q90 0 159.5 47t111 131t62.5 192t21 236t-21 235t-63 191t-112 131t-162 47q-90 0 -159.5 -47t-111.5 -131t-63 -191t-21 -235t21 -236t63.5 -192t112.5 -131t162 -47zM666 -20q-115 0 -205.5 39t-149.5 106.5t-98 164t-55.5 205.5t-16.5 236q0 126 17 235
t56.5 205t99 164t148.5 107t202 39q115 0 205 -39.5t149 -107t97.5 -164t54.5 -204.5t16 -235q0 -159 -29.5 -291.5t-90 -237t-162.5 -163.5t-238 -59zM696 1729q0 38 29 66t68 28q40 0 68 -28t28 -66q0 -40 -28 -68.5t-68 -28.5q-39 0 -68 29t-29 68zM434 1729q0 38 28 66
t68 28q38 0 66.5 -28t28.5 -66q0 -40 -28.5 -68.5t-66.5 -28.5q-40 0 -68 28.5t-28 68.5z" />
    <glyph glyph-name="multiply" unicode="&#xd7;" 
d="M227 907l103 103l248 -248l245 248l103 -103l-246 -248l248 -247l-103 -105l-247 248l-250 -248l-103 105l248 247z" />
    <glyph glyph-name="Oslash" unicode="&#xd8;" horiz-adv-x="1306" 
d="M645 -20q-115 0 -205 39t-149.5 106.5t-98 164.5t-55 205.5t-16.5 235.5q0 126 17 235t56 205t98.5 164t148.5 107t202 39q115 0 205 -39.5t149 -107t97.5 -164t54.5 -204.5t16 -235q0 -159 -29.5 -291.5t-90 -237t-162.5 -163.5t-238 -59zM287 731q0 -253 73 -409
l504 909q-87 104 -223 104q-90 0 -159.5 -47t-111 -131t-62.5 -191t-21 -235zM645 125q90 0 159.5 47t111 131t62.5 192t21 236q0 238 -67 389l-502 -903q86 -92 215 -92z" />
    <glyph glyph-name="Ugrave" unicode="&#xd9;" horiz-adv-x="1204" 
d="M328 1464v-1034q0 -152 77 -231.5t197 -79.5q122 0 197 80.5t75 228.5v1036h168v-1048q0 -201 -125 -320t-313 -119q-190 0 -316 118.5t-126 320.5v1048h166zM608 1847l185 -256h-160l-221 256h196z" />
    <glyph glyph-name="Uacute" unicode="&#xda;" horiz-adv-x="1204" 
d="M328 1464v-1034q0 -152 77 -231.5t197 -79.5q122 0 197 80.5t75 228.5v1036h168v-1048q0 -201 -125 -320t-313 -119q-190 0 -316 118.5t-126 320.5v1048h166zM412 1591l184 256h197l-222 -256h-159z" />
    <glyph glyph-name="Ucircumflex" unicode="&#xdb;" horiz-adv-x="1204" 
d="M328 1464v-1034q0 -152 77 -231.5t197 -79.5q122 0 197 80.5t75 228.5v1036h168v-1048q0 -201 -125 -320t-313 -119q-190 0 -316 118.5t-126 320.5v1048h166zM356 1591l148 256h178l166 -256h-123l-127 133l-119 -133h-123z" />
    <glyph glyph-name="Udieresis" unicode="&#xdc;" horiz-adv-x="1204" 
d="M328 1464v-1034q0 -152 77 -231.5t197 -79.5q122 0 197 80.5t75 228.5v1036h168v-1048q0 -201 -125 -320t-313 -119q-190 0 -316 118.5t-126 320.5v1048h166zM637 1788q0 38 29 66t67 28q40 0 68 -28t28 -66q0 -40 -28 -68t-68 -28q-39 0 -67.5 28.5t-28.5 67.5z
M375 1788q0 38 28 66t68 28q38 0 66 -28t28 -66q0 -40 -28 -68t-66 -28q-40 0 -68 28t-28 68z" />
    <glyph glyph-name="Yacute" unicode="&#xdd;" horiz-adv-x="1183" 
d="M1145 1464l-469 -784v-680h-166v680l-471 784h186l367 -633l369 633h184zM401 1591l185 256h196l-221 -256h-160z" />
    <glyph glyph-name="Thorn" unicode="&#xde;" 
d="M162 1464h166v-217h282q126 0 231 -56.5t166.5 -159.5t61.5 -230q0 -188 -134 -317.5t-325 -129.5h-282v-354h-166v1464zM588 1110h-260v-621h260q132 0 221.5 89.5t89.5 224.5q0 133 -90 220t-221 87z" />
    <glyph glyph-name="germandbls" unicode="&#xdf;" horiz-adv-x="1173" 
d="M328 0h-166v1075q0 190 120 298t314 108q192 0 311 -104t119 -294q0 -198 -154 -309q60 -37 100.5 -81.5t59.5 -93t26 -90t7 -91.5q0 -179 -119.5 -298.5t-300.5 -119.5h-123v135h127q100 0 175 95.5t75 203.5q0 133 -74.5 196.5t-193.5 63.5h-107v131h107q97 0 165 71
t68 177q0 123 -71 196.5t-197 73.5q-268 0 -268 -272v-1071z" />
    <glyph glyph-name="agrave" unicode="&#xe0;" horiz-adv-x="1069" 
d="M483 520q-109 0 -178 -59t-69 -148q0 -87 69.5 -147t177.5 -60q37 0 73.5 5.5t76 20t69.5 36.5t49 58.5t19 82.5q0 57 -28.5 100.5t-73.5 66.5t-92 33.5t-93 10.5zM66 311q0 70 22.5 128t60.5 97t88.5 66t105.5 39t112 12q89 0 165.5 -24.5t149.5 -91.5v125
q0 80 -12.5 134t-44 94t-88 58.5t-142.5 18.5q-126 0 -262 -72l-84 115q62 37 159.5 63.5t209.5 26.5q221 0 325.5 -98.5t104.5 -315.5v-686h-166v113q-40 -68 -134 -100.5t-181 -32.5q-57 0 -110 10t-104.5 34.5t-89.5 61.5t-61.5 95t-23.5 130zM524 1464l185 -256h-160
l-221 256h196z" />
    <glyph glyph-name="aacute" unicode="&#xe1;" horiz-adv-x="1069" 
d="M483 520q-109 0 -178 -59t-69 -148q0 -87 69.5 -147t177.5 -60q37 0 73.5 5.5t76 20t69.5 36.5t49 58.5t19 82.5q0 57 -28.5 100.5t-73.5 66.5t-92 33.5t-93 10.5zM66 311q0 70 22.5 128t60.5 97t88.5 66t105.5 39t112 12q89 0 165.5 -24.5t149.5 -91.5v125
q0 80 -12.5 134t-44 94t-88 58.5t-142.5 18.5q-126 0 -262 -72l-84 115q62 37 159.5 63.5t209.5 26.5q221 0 325.5 -98.5t104.5 -315.5v-686h-166v113q-40 -68 -134 -100.5t-181 -32.5q-57 0 -110 10t-104.5 34.5t-89.5 61.5t-61.5 95t-23.5 130zM328 1208l184 256h197
l-222 -256h-159z" />
    <glyph glyph-name="acircumflex" unicode="&#xe2;" horiz-adv-x="1069" 
d="M483 520q-109 0 -178 -59t-69 -148q0 -87 69.5 -147t177.5 -60q37 0 73.5 5.5t76 20t69.5 36.5t49 58.5t19 82.5q0 57 -28.5 100.5t-73.5 66.5t-92 33.5t-93 10.5zM66 311q0 70 22.5 128t60.5 97t88.5 66t105.5 39t112 12q89 0 165.5 -24.5t149.5 -91.5v125
q0 80 -12.5 134t-44 94t-88 58.5t-142.5 18.5q-126 0 -262 -72l-84 115q62 37 159.5 63.5t209.5 26.5q221 0 325.5 -98.5t104.5 -315.5v-686h-166v113q-40 -68 -134 -100.5t-181 -32.5q-57 0 -110 10t-104.5 34.5t-89.5 61.5t-61.5 95t-23.5 130zM272 1208l148 256h178
l166 -256h-123l-127 133l-119 -133h-123z" />
    <glyph glyph-name="atilde" unicode="&#xe3;" horiz-adv-x="1069" 
d="M483 520q-109 0 -178 -59t-69 -148q0 -87 69.5 -147t177.5 -60q37 0 73.5 5.5t76 20t69.5 36.5t49 58.5t19 82.5q0 57 -28.5 100.5t-73.5 66.5t-92 33.5t-93 10.5zM66 311q0 70 22.5 128t60.5 97t88.5 66t105.5 39t112 12q89 0 165.5 -24.5t149.5 -91.5v125
q0 80 -12.5 134t-44 94t-88 58.5t-142.5 18.5q-126 0 -262 -72l-84 115q62 37 159.5 63.5t209.5 26.5q221 0 325.5 -98.5t104.5 -315.5v-686h-166v113q-40 -68 -134 -100.5t-181 -32.5q-57 0 -110 10t-104.5 34.5t-89.5 61.5t-61.5 95t-23.5 130zM637 1274q-59 0 -124 33.5
t-99 33.5q-27 0 -53.5 -22t-36.5 -45l-76 59q17 43 71 78t103 35q42 0 87 -17t80.5 -34t53.5 -17q27 0 54.5 22.5t37.5 45.5l76 -60q-17 -43 -71 -77.5t-103 -34.5z" />
    <glyph glyph-name="adieresis" unicode="&#xe4;" horiz-adv-x="1069" 
d="M483 520q-109 0 -178 -59t-69 -148q0 -87 69.5 -147t177.5 -60q37 0 73.5 5.5t76 20t69.5 36.5t49 58.5t19 82.5q0 57 -28.5 100.5t-73.5 66.5t-92 33.5t-93 10.5zM66 311q0 70 22.5 128t60.5 97t88.5 66t105.5 39t112 12q89 0 165.5 -24.5t149.5 -91.5v125
q0 80 -12.5 134t-44 94t-88 58.5t-142.5 18.5q-126 0 -262 -72l-84 115q62 37 159.5 63.5t209.5 26.5q221 0 325.5 -98.5t104.5 -315.5v-686h-166v113q-40 -68 -134 -100.5t-181 -32.5q-57 0 -110 10t-104.5 34.5t-89.5 61.5t-61.5 95t-23.5 130zM561 1405q0 38 29 66t67 28
q40 0 68.5 -28t28.5 -66q0 -40 -28.5 -68t-68.5 -28q-39 0 -67.5 28.5t-28.5 67.5zM299 1405q0 38 28 66t68 28q38 0 66 -28t28 -66q0 -40 -28 -68t-66 -28q-40 0 -68 28t-28 68z" />
    <glyph glyph-name="aring" unicode="&#xe5;" horiz-adv-x="1069" 
d="M483 520q-109 0 -178 -59t-69 -148q0 -87 69.5 -147t177.5 -60q37 0 73.5 5.5t76 20t69.5 36.5t49 58.5t19 82.5q0 57 -28.5 100.5t-73.5 66.5t-92 33.5t-93 10.5zM66 311q0 70 22.5 128t60.5 97t88.5 66t105.5 39t112 12q89 0 165.5 -24.5t149.5 -91.5v125
q0 80 -12.5 134t-44 94t-88 58.5t-142.5 18.5q-126 0 -262 -72l-84 115q62 37 159.5 63.5t209.5 26.5q221 0 325.5 -98.5t104.5 -315.5v-686h-166v113q-40 -68 -134 -100.5t-181 -32.5q-57 0 -110 10t-104.5 34.5t-89.5 61.5t-61.5 95t-23.5 130zM311 1382q0 85 60.5 146
t146.5 61q85 0 146 -61t61 -146t-61 -145.5t-146 -60.5q-86 0 -146.5 60.5t-60.5 145.5zM416 1382q0 -41 29.5 -70.5t72.5 -29.5q41 0 70.5 29.5t29.5 70.5t-29.5 71t-70.5 30q-42 0 -72 -29.5t-30 -71.5z" />
    <glyph glyph-name="ae" unicode="&#xe6;" horiz-adv-x="1714" 
d="M483 520q-109 0 -178 -60.5t-69 -150.5q0 -86 69 -144.5t178 -58.5q37 0 73.5 5.5t76 20t69.5 36.5t49 58.5t19 82.5q0 57 -28.5 100.5t-73.5 66.5t-92 33.5t-93 10.5zM1176 952q-117 0 -179 -73t-73 -256h503q-3 75 -16.5 131.5t-41.5 102.5t-76.5 70.5t-116.5 24.5z
M506 1100q272 0 358 -158q108 158 324 158q95 0 167 -31.5t126 -101t82 -187.5t28 -284h-667q6 -201 76 -285t198 -84q67 0 127.5 25.5t95.5 68.5l162 -33q-116 -208 -385 -208q-254 0 -354 190q-59 -101 -153 -145.5t-236 -44.5q-57 0 -110 9.5t-104.5 33.5t-89.5 60.5
t-61.5 94t-23.5 129.5q0 70 22.5 128.5t60.5 98t88.5 67t105.5 40t112 12.5q89 0 165.5 -24.5t149.5 -91.5v125q0 80 -12.5 134t-44 94t-88 58.5t-142.5 18.5q-126 0 -262 -72l-84 115q62 37 159.5 63.5t209.5 26.5z" />
    <glyph glyph-name="ccedilla" unicode="&#xe7;" horiz-adv-x="964" 
d="M289 543q0 -158 28.5 -250t82 -129t141.5 -37q67 0 124 24.5t93 67.5l160 -31q-111 -208 -377 -208q-101 0 -175.5 29t-130.5 93.5t-84 175t-28 267.5t26 264.5t80.5 171.5t130 91.5t181.5 27.5q265 0 377 -207l-160 -33q-36 43 -93 67.5t-124 24.5q-90 0 -143 -34.5
t-81 -125t-28 -249.5zM555 -403q-105 0 -155.5 37t-59.5 90h131q14 -50 84 -50q52 0 73 15.5t21 48.5q0 44 -30 56.5t-113 12.5h-84v97h162q85 0 138.5 -47t53.5 -109q0 -48 -17.5 -79.5t-51 -46.5t-68.5 -20t-84 -5z" />
    <glyph glyph-name="egrave" unicode="&#xe8;" horiz-adv-x="1079" 
d="M563 -20q-101 0 -178.5 29t-137.5 93t-92 175.5t-32 267.5q0 149 32.5 258.5t91.5 173t135 93.5t171 30t167 -31.5t126 -101t82 -187.5t28 -284h-667q6 -201 76 -285t198 -84q67 0 128.5 25.5t96.5 68.5l160 -33q-113 -208 -385 -208zM541 952q-77 0 -127.5 -28t-83 -102
t-39.5 -199h502q-3 75 -16.5 131.5t-41.5 102.5t-77 70.5t-117 24.5zM461 1464l184 -256h-160l-221 256h197z" />
    <glyph glyph-name="eacute" unicode="&#xe9;" horiz-adv-x="1079" 
d="M563 -20q-101 0 -178.5 29t-137.5 93t-92 175.5t-32 267.5q0 149 32.5 258.5t91.5 173t135 93.5t171 30t167 -31.5t126 -101t82 -187.5t28 -284h-667q6 -201 76 -285t198 -84q67 0 128.5 25.5t96.5 68.5l160 -33q-113 -208 -385 -208zM541 952q-77 0 -127.5 -28t-83 -102
t-39.5 -199h502q-3 75 -16.5 131.5t-41.5 102.5t-77 70.5t-117 24.5zM440 1208l185 256h196l-221 -256h-160z" />
    <glyph glyph-name="ecircumflex" unicode="&#xea;" horiz-adv-x="1079" 
d="M563 -20q-101 0 -178.5 29t-137.5 93t-92 175.5t-32 267.5q0 149 32.5 258.5t91.5 173t135 93.5t171 30t167 -31.5t126 -101t82 -187.5t28 -284h-667q6 -201 76 -285t198 -84q67 0 128.5 25.5t96.5 68.5l160 -33q-113 -208 -385 -208zM541 952q-77 0 -127.5 -28t-83 -102
t-39.5 -199h502q-3 75 -16.5 131.5t-41.5 102.5t-77 70.5t-117 24.5zM293 1208l147 256h178l166 -256h-122l-127 133l-119 -133h-123z" />
    <glyph glyph-name="edieresis" unicode="&#xeb;" horiz-adv-x="1079" 
d="M563 -20q-101 0 -178.5 29t-137.5 93t-92 175.5t-32 267.5q0 149 32.5 258.5t91.5 173t135 93.5t171 30t167 -31.5t126 -101t82 -187.5t28 -284h-667q6 -201 76 -285t198 -84q67 0 128.5 25.5t96.5 68.5l160 -33q-113 -208 -385 -208zM541 952q-77 0 -127.5 -28t-83 -102
t-39.5 -199h502q-3 75 -16.5 131.5t-41.5 102.5t-77 70.5t-117 24.5zM573 1405q0 38 29 66t68 28q40 0 68 -28t28 -66q0 -40 -28 -68t-68 -28q-39 0 -68 28.5t-29 67.5zM311 1405q0 38 28.5 66t68.5 28q38 0 66 -28t28 -66q0 -40 -28 -68t-66 -28q-40 0 -68.5 28t-28.5 68z
" />
    <glyph glyph-name="igrave" unicode="&#xec;" horiz-adv-x="454" 
d="M143 1081h166v-1081h-166v1081zM233 1464l185 -256h-160l-221 256h196z" />
    <glyph glyph-name="iacute" unicode="&#xed;" horiz-adv-x="454" 
d="M143 1081h166v-1081h-166v1081zM37 1208l184 256h197l-221 -256h-160z" />
    <glyph glyph-name="icircumflex" unicode="&#xee;" horiz-adv-x="454" 
d="M143 1081h166v-1081h-166v1081zM-18 1208l147 256h178l166 -256h-123l-127 133l-119 -133h-122z" />
    <glyph glyph-name="idieresis" unicode="&#xef;" horiz-adv-x="454" 
d="M143 1081h166v-1081h-166v1081zM262 1405q0 38 29 66t67 28q40 0 68.5 -28t28.5 -66q0 -40 -28.5 -68t-68.5 -28q-39 0 -67.5 28.5t-28.5 67.5zM0 1405q0 38 28 66t68 28q38 0 66 -28t28 -66q0 -40 -28 -68t-66 -28q-40 0 -68 28t-28 68z" />
    <glyph glyph-name="eth" unicode="&#xf0;" horiz-adv-x="1114" 
d="M444 1178l-59 110l131 70l-76 108l144 70l71 -102l140 75l57 -112l-123 -68l41 -57q136 -192 188 -349t52 -360v-18q0 -565 -453 -565q-121 0 -210 40.5t-142 116.5t-78 177.5t-25 230.5q0 126 25 225t78 174t142 115.5t210 40.5q76 0 152 -29q-40 67 -82 129l-39 55z
M557 119q147 0 218 110t71 310q0 201 -71 311.5t-218 110.5t-219 -110.5t-72 -311.5q0 -200 72 -310t219 -110z" />
    <glyph glyph-name="ntilde" unicode="&#xf1;" horiz-adv-x="1073" 
d="M133 1081h166v-110q44 51 134 90t173 39q332 0 332 -369v-731h-166v758q0 205 -209 205q-69 0 -146 -37t-118 -74v-852h-166v1081zM645 1274q-59 0 -124 33.5t-99 33.5q-27 0 -53.5 -22t-36.5 -45l-76 59q17 43 71 78t103 35q42 0 87 -17t80.5 -34t53.5 -17
q27 0 54.5 22.5t37.5 45.5l76 -60q-17 -43 -71 -77.5t-103 -34.5z" />
    <glyph glyph-name="ograve" unicode="&#xf2;" horiz-adv-x="1114" 
d="M557 1100q121 0 209.5 -40.5t141 -115.5t77.5 -174t25 -225q0 -565 -453 -565q-121 0 -210 40.5t-142 116.5t-78 177.5t-25 230.5q0 126 25 225t78 174t142 115.5t210 40.5zM557 119q147 0 218 110t71 310q0 201 -71 311.5t-218 110.5t-219 -110.5t-72 -311.5
q0 -200 72 -310t219 -110zM473 1464l184 -256h-159l-222 256h197z" />
    <glyph glyph-name="oacute" unicode="&#xf3;" horiz-adv-x="1114" 
d="M557 1100q121 0 209.5 -40.5t141 -115.5t77.5 -174t25 -225q0 -565 -453 -565q-121 0 -210 40.5t-142 116.5t-78 177.5t-25 230.5q0 126 25 225t78 174t142 115.5t210 40.5zM557 119q147 0 218 110t71 310q0 201 -71 311.5t-218 110.5t-219 -110.5t-72 -311.5
q0 -200 72 -310t219 -110zM420 1208l184 256h197l-221 -256h-160z" />
    <glyph glyph-name="ocircumflex" unicode="&#xf4;" horiz-adv-x="1114" 
d="M557 1100q121 0 209.5 -40.5t141 -115.5t77.5 -174t25 -225q0 -565 -453 -565q-121 0 -210 40.5t-142 116.5t-78 177.5t-25 230.5q0 126 25 225t78 174t142 115.5t210 40.5zM557 119q147 0 218 110t71 310q0 201 -71 311.5t-218 110.5t-219 -110.5t-72 -311.5
q0 -200 72 -310t219 -110zM311 1208l148 256h178l166 -256h-123l-127 133l-119 -133h-123z" />
    <glyph glyph-name="otilde" unicode="&#xf5;" horiz-adv-x="1114" 
d="M557 1100q121 0 209.5 -40.5t141 -115.5t77.5 -174t25 -225q0 -565 -453 -565q-121 0 -210 40.5t-142 116.5t-78 177.5t-25 230.5q0 126 25 225t78 174t142 115.5t210 40.5zM557 119q147 0 218 110t71 310q0 201 -71 311.5t-218 110.5t-219 -110.5t-72 -311.5
q0 -200 72 -310t219 -110zM666 1274q-59 0 -124.5 33.5t-99.5 33.5q-27 0 -53.5 -22t-36.5 -45l-76 59q17 43 71.5 78t103.5 35q42 0 87 -17t80.5 -34t53.5 -17q27 0 54.5 22.5t37.5 45.5l76 -60q-17 -43 -71 -77.5t-103 -34.5z" />
    <glyph glyph-name="odieresis" unicode="&#xf6;" horiz-adv-x="1114" 
d="M557 1100q121 0 209.5 -40.5t141 -115.5t77.5 -174t25 -225q0 -565 -453 -565q-121 0 -210 40.5t-142 116.5t-78 177.5t-25 230.5q0 126 25 225t78 174t142 115.5t210 40.5zM557 119q147 0 218 110t71 310q0 201 -71 311.5t-218 110.5t-219 -110.5t-72 -311.5
q0 -200 72 -310t219 -110zM592 1405q0 38 29 66t67 28q40 0 68 -28t28 -66q0 -40 -28 -68t-68 -28q-39 0 -67.5 28.5t-28.5 67.5zM330 1405q0 38 28 66t68 28q38 0 66 -28t28 -66q0 -40 -28 -68t-66 -28q-40 0 -68 28t-28 68z" />
    <glyph glyph-name="divide" unicode="&#xf7;" 
d="M465 205q0 46 33.5 79t79.5 33q45 0 76.5 -33t31.5 -79t-31 -77.5t-77 -31.5t-79.5 32t-33.5 77zM465 1104q0 44 33.5 77t79.5 33q45 0 76.5 -32.5t31.5 -77.5q0 -46 -31.5 -78.5t-76.5 -32.5q-46 0 -79.5 32.5t-33.5 78.5zM154 586v145h845v-145h-845z" />
    <glyph glyph-name="oslash" unicode="&#xf8;" horiz-adv-x="1114" 
d="M557 1100q121 0 209.5 -40.5t141 -115.5t77.5 -174t25 -225q0 -565 -453 -565q-121 0 -210 40.5t-142 116.5t-78 177.5t-25 230.5q0 126 25 225t78 174t142 115.5t210 40.5zM266 539q0 -182 56 -283l417 635q-70 70 -182 70q-147 0 -219 -110.5t-72 -311.5zM557 119
q147 0 218 110t71 310q0 149 -41 252l-410 -623q64 -49 162 -49z" />
    <glyph glyph-name="ugrave" unicode="&#xf9;" horiz-adv-x="1060" 
d="M928 0h-166v102q-53 -49 -137 -84.5t-158 -35.5q-334 0 -334 368v731h166v-757q0 -205 211 -205q64 0 140 25t112 51v886h166v-1081zM537 1464l184 -256h-160l-221 256h197z" />
    <glyph glyph-name="uacute" unicode="&#xfa;" horiz-adv-x="1060" 
d="M928 0h-166v102q-53 -49 -137 -84.5t-158 -35.5q-334 0 -334 368v731h166v-757q0 -205 211 -205q64 0 140 25t112 51v886h166v-1081zM340 1208l184 256h197l-221 -256h-160z" />
    <glyph glyph-name="ucircumflex" unicode="&#xfb;" horiz-adv-x="1060" 
d="M928 0h-166v102q-53 -49 -137 -84.5t-158 -35.5q-334 0 -334 368v731h166v-757q0 -205 211 -205q64 0 140 25t112 51v886h166v-1081zM285 1208l147 256h178l166 -256h-123l-127 133l-118 -133h-123z" />
    <glyph glyph-name="udieresis" unicode="&#xfc;" horiz-adv-x="1060" 
d="M928 0h-166v102q-53 -49 -137 -84.5t-158 -35.5q-334 0 -334 368v731h166v-757q0 -205 211 -205q64 0 140 25t112 51v886h166v-1081zM565 1405q0 38 29 66t68 28q40 0 68 -28t28 -66q0 -40 -28 -68t-68 -28q-39 0 -68 28.5t-29 67.5zM303 1405q0 38 28 66t68 28
q38 0 66.5 -28t28.5 -66q0 -39 -28 -67.5t-67 -28.5q-40 0 -68 28t-28 68z" />
    <glyph glyph-name="yacute" unicode="&#xfd;" horiz-adv-x="1003" 
d="M293 -383l127 385l-367 1079h178l271 -864l286 864h162l-499 -1464h-158zM311 1208l185 256h196l-221 -256h-160z" />
    <glyph glyph-name="thorn" unicode="&#xfe;" horiz-adv-x="1112" 
d="M133 1464l166 72v-565q44 50 136.5 89.5t174.5 39.5q91 0 160 -31.5t118.5 -98t75 -175.5t25.5 -260q0 -288 -104.5 -423t-290.5 -135q-81 0 -165 40.5t-130 93.5v-494h-166v1847zM823 537q0 107 -13 185t-34.5 124t-56 72.5t-69.5 35.5t-83 9q-70 0 -149 -37.5
t-119 -73.5v-623q41 -37 120 -75.5t148 -38.5q65 0 110 18.5t79 64.5t50.5 130t16.5 209z" />
    <glyph glyph-name="ydieresis" unicode="&#xff;" horiz-adv-x="1003" 
d="M293 -383l127 385l-367 1079h178l271 -864l286 864h162l-499 -1464h-158zM537 1405q0 38 29 66t67 28q40 0 68 -28t28 -66q0 -40 -28 -68t-68 -28q-39 0 -67.5 28.5t-28.5 67.5zM274 1405q0 38 28.5 66t68.5 28q38 0 66 -28t28 -66q0 -40 -28 -68t-66 -28q-40 0 -68.5 28
t-28.5 68z" />
    <glyph glyph-name="dotlessi" unicode="&#x131;" horiz-adv-x="454" 
d="M143 1081h166v-1081h-166v1081z" />
    <glyph glyph-name="Lslash" unicode="&#x141;" horiz-adv-x="983" 
d="M72 537v147l90 23v757h166v-714l438 114v-147l-438 -113v-467h618v-137h-784v561z" />
    <glyph glyph-name="lslash" unicode="&#x142;" horiz-adv-x="489" 
d="M18 586v145l144 57v676l166 72v-682l145 57v-145l-145 -57v-709h-166v641z" />
    <glyph glyph-name="OE" unicode="&#x152;" horiz-adv-x="1773" 
d="M1729 137v-137h-1008q-122 0 -211.5 21t-161.5 71t-116.5 134t-67.5 209t-23 296q0 213 34.5 355.5t109 225.5t179 117.5t257.5 34.5h965v-139h-613v-520h447v-127h-447v-541h656zM907 1325h-184q-80 0 -139.5 -14t-113.5 -52.5t-88 -104t-53.5 -171.5t-19.5 -252
q0 -147 19.5 -253t53 -171.5t87 -103.5t113 -52t139.5 -14h186v1188z" />
    <glyph glyph-name="oe" unicode="&#x153;" horiz-adv-x="1789" 
d="M1274 -20q-255 0 -354 188q-104 -188 -363 -188q-121 0 -210 40.5t-142 116.5t-78 177.5t-25 230.5q0 126 25 225t78 174t142 115.5t210 40.5q259 0 365 -191q102 191 342 191q95 0 167 -31.5t126 -101t82 -187.5t28 -284h-668q3 -103 23.5 -176t57.5 -114.5t84.5 -60
t109.5 -18.5q67 0 128.5 25.5t96.5 68.5l160 -33q-113 -208 -385 -208zM557 119q147 0 218 110t71 310q0 201 -71 311.5t-218 110.5t-219 -110.5t-72 -311.5q0 -200 72 -310t219 -110zM1251 952q-77 0 -127.5 -28t-83 -102t-39.5 -199h502q-3 75 -16.5 131.5t-41.5 102.5
t-77 70.5t-117 24.5z" />
    <glyph glyph-name="Scaron" unicode="&#x160;" horiz-adv-x="1067" 
d="M72 340l159 63q30 -113 113 -192.5t193 -79.5q114 0 189 70t75 182q0 55 -23.5 99t-63.5 75t-92 57.5t-109 50.5t-114 49t-109 58.5t-92 74.5t-63.5 101t-23.5 133q0 180 109 290t300 110q137 0 248.5 -79t153.5 -200l-162 -53q-23 77 -96.5 128.5t-157.5 51.5
q-98 0 -162.5 -57t-64.5 -162q0 -68 38 -120.5t98.5 -87t134 -66t147 -68t134 -82t98.5 -119t38 -168.5q0 -190 -124 -304.5t-319 -114.5q-153 0 -281.5 100t-170.5 260zM436 1591l-147 256h123l118 -133l127 133h123l-166 -256h-178z" />
    <glyph glyph-name="scaron" unicode="&#x161;" horiz-adv-x="944" 
d="M889 319q0 -161 -114.5 -251.5t-307.5 -90.5q-110 0 -225.5 39t-173.5 93l110 110q50 -39 135.5 -72.5t165.5 -33.5q112 0 179 52t67 132q0 26 -5 47t-16.5 37t-24 28.5t-35.5 22.5t-41.5 16.5t-52 13.5t-57 11t-65.5 10q-55 8 -99 19t-91.5 33.5t-79 54t-52 82.5
t-20.5 116q0 142 107.5 227t287.5 85q223 0 359 -109l-105 -112q-44 34 -111.5 58t-140.5 24q-99 0 -164 -42.5t-65 -115.5q0 -90 56.5 -126t199.5 -54q87 -11 151 -30t118 -53t82 -89.5t28 -131.5zM375 1208l-148 256h123l119 -133l127 133h123l-166 -256h-178z" />
    <glyph glyph-name="Ydieresis" unicode="&#x178;" horiz-adv-x="1183" 
d="M1145 1464l-469 -784v-680h-166v680l-471 784h186l367 -633l369 633h184zM627 1729q0 38 29 66t67 28q40 0 68 -28t28 -66q0 -40 -28 -68.5t-68 -28.5q-39 0 -67.5 29t-28.5 68zM365 1729q0 38 28 66t68 28q38 0 66 -28t28 -66q0 -40 -28 -68.5t-66 -28.5q-40 0 -68 28.5
t-28 68.5z" />
    <glyph glyph-name="Zcaron" unicode="&#x17d;" horiz-adv-x="1069" 
d="M1008 137v-137h-947v137l723 1192h-684v135h865v-135l-723 -1192h766zM436 1591l-147 256h123l118 -133l127 133h123l-166 -256h-178z" />
    <glyph glyph-name="zcaron" unicode="&#x17e;" horiz-adv-x="870" 
d="M813 139v-139h-764v150l584 790h-561v141h741v-151l-584 -791h584zM293 1208l-148 256h123l119 -133l127 133h123l-166 -256h-178z" />
    <glyph glyph-name="florin" unicode="&#x192;" 
d="M485 698h-194v140h194v303q0 183 86 261.5t263 78.5q34 0 102 -15v-145q-47 14 -113 14q-91 0 -131.5 -42t-40.5 -148v-307h211v-140h-211v-759q0 -182 -85.5 -260t-260.5 -78q-55 0 -102 14v143q63 -14 112 -14q90 0 130 42t40 148v764z" />
    <glyph glyph-name="circumflex" unicode="&#x2c6;" horiz-adv-x="454" 
d="M-18 1208l147 256h178l166 -256h-123l-127 133l-119 -133h-122z" />
    <glyph glyph-name="caron" unicode="&#x2c7;" horiz-adv-x="454" 
d="M129 1208l-147 256h122l119 -133l127 133h123l-166 -256h-178z" />
    <glyph glyph-name="breve" unicode="&#x2d8;" horiz-adv-x="454" 
d="M348 1464h107q0 -107 -59.5 -181.5t-166.5 -74.5t-168 75t-61 181h106q0 -51 30 -92t93 -41q62 0 90.5 40.5t28.5 92.5z" />
    <glyph glyph-name="dotaccent" unicode="&#x2d9;" horiz-adv-x="454" 
d="M131 1405q0 38 28 66t68 28q39 0 68 -28t29 -66q0 -39 -29 -67.5t-68 -28.5q-40 0 -68 28t-28 68z" />
    <glyph glyph-name="ring" unicode="&#x2da;" horiz-adv-x="454" 
d="M23 1382q0 85 60 146t146 61q85 0 146 -61t61 -146t-61 -145.5t-146 -60.5q-86 0 -146 60.5t-60 145.5zM127 1382q0 -41 29.5 -70.5t72.5 -29.5q41 0 71 29.5t30 70.5t-30 71t-71 30q-43 0 -72.5 -29.5t-29.5 -71.5z" />
    <glyph glyph-name="ogonek" unicode="&#x2db;" horiz-adv-x="565" 
d="M197 0h165q-26 -69 -26 -133q0 -32 17.5 -49t47.5 -17q21 0 66 13v-117q-69 -25 -143 -25q-79 0 -121.5 48t-42.5 114q0 79 37 166z" />
    <glyph glyph-name="tilde" unicode="&#x2dc;" horiz-adv-x="526" 
d="M373 1274q-59 0 -124 33.5t-99 33.5q-27 0 -54 -22t-37 -45l-75 59q17 43 71 78t103 35q42 0 87 -17t80.5 -34t53.5 -17q27 0 54.5 22.5t37.5 45.5l76 -60q-17 -43 -71 -77.5t-103 -34.5z" />
    <glyph glyph-name="hungarumlaut" unicode="&#x2dd;" horiz-adv-x="454" 
d="M-18 1208l116 256h164l-139 -256h-141zM201 1208l114 256h166l-141 -256h-139z" />
    <glyph glyph-name="Delta" unicode="&#x394;" horiz-adv-x="1193" 
d="M1157 0h-1120l450 1464h218zM596 1296l-340 -1159h682z" />
    <glyph glyph-name="Delta" unicode="&#x2206;" horiz-adv-x="1193" 
d="M1157 0h-1120l450 1464h218zM596 1296l-340 -1159h682z" />
    <glyph glyph-name="Omega" unicode="&#x3a9;" horiz-adv-x="1290" 
d="M645 1335q-136 0 -233 -93.5t-97 -235.5q0 -91 32 -204.5t70.5 -206.5t70.5 -215.5t32 -229.5v-150h-346v158h201q0 67 -24 150t-58.5 164t-69 165t-58.5 179.5t-24 180.5q0 132 65 242.5t181 176t258 65.5t258 -65.5t181 -176t65 -242.5q0 -85 -24 -180.5t-58.5 -179.5
t-69 -165t-58.5 -164t-24 -150h201v-158h-346v150q0 107 32 229.5t70.5 215.5t70.5 206.5t32 204.5q0 142 -97 235.5t-233 93.5z" />
    <glyph glyph-name="Omega" unicode="&#x2126;" horiz-adv-x="1290" 
d="M645 1335q-136 0 -233 -93.5t-97 -235.5q0 -91 32 -204.5t70.5 -206.5t70.5 -215.5t32 -229.5v-150h-346v158h201q0 67 -24 150t-58.5 164t-69 165t-58.5 179.5t-24 180.5q0 132 65 242.5t181 176t258 65.5t258 -65.5t181 -176t65 -242.5q0 -85 -24 -180.5t-58.5 -179.5
t-69 -165t-58.5 -164t-24 -150h201v-158h-346v150q0 107 32 229.5t70.5 215.5t70.5 206.5t32 204.5q0 142 -97 235.5t-233 93.5z" />
    <glyph glyph-name="pi" unicode="&#x3c0;" horiz-adv-x="1122" 
d="M133 1081h856v-1081h-166v944h-524v-944h-166v1081z" />
    <glyph glyph-name="endash" unicode="&#x2013;" horiz-adv-x="1081" 
d="M0 586v145h1081v-145h-1081z" />
    <glyph glyph-name="emdash" unicode="&#x2014;" horiz-adv-x="1802" 
d="M0 586v145h1802v-145h-1802z" />
    <glyph glyph-name="quoteleft" unicode="&#x2018;" horiz-adv-x="409" 
d="M315 1071q0 -46 -33 -79.5t-77 -33.5q-46 0 -78.5 33.5t-32.5 79.5q0 177 170 410h90q-109 -215 -121 -303q36 -11 59 -40t23 -67z" />
    <glyph glyph-name="quoteright" unicode="&#x2019;" horiz-adv-x="409" 
d="M100 1370q0 46 33.5 78.5t79.5 32.5t77.5 -32.5t31.5 -78.5q0 -174 -170 -412h-91q109 213 123 306q-36 9 -60 38t-24 68z" />
    <glyph glyph-name="quotesinglbase" unicode="&#x201a;" horiz-adv-x="409" 
d="M94 90q0 46 33.5 79.5t79.5 33.5q45 0 76.5 -33.5t31.5 -79.5q0 -174 -170 -412h-90q109 213 123 306q-36 9 -60 38t-24 68z" />
    <glyph glyph-name="quotedblleft" unicode="&#x201c;" horiz-adv-x="757" 
d="M315 1071q0 -46 -33 -79.5t-77 -33.5q-46 0 -78.5 33.5t-32.5 79.5q0 177 170 410h90q-109 -215 -121 -303q36 -11 59 -40t23 -67zM664 1071q0 -46 -33.5 -79.5t-77.5 -33.5q-46 0 -78.5 33.5t-32.5 79.5q0 177 170 410h90q-108 -212 -120 -303q36 -11 59 -40t23 -67z
" />
    <glyph glyph-name="quotedblright" unicode="&#x201d;" horiz-adv-x="757" 
d="M100 1370q0 46 33.5 78.5t79.5 32.5t77.5 -32.5t31.5 -78.5q0 -174 -170 -412h-91q109 213 123 306q-36 9 -60 38t-24 68zM449 1370q0 46 33 78.5t79 32.5t77.5 -32.5t31.5 -78.5q0 -174 -170 -412h-90q107 211 122 306q-36 9 -59.5 38t-23.5 68z" />
    <glyph glyph-name="quotedblbase" unicode="&#x201e;" horiz-adv-x="757" 
d="M94 90q0 46 33.5 79.5t79.5 33.5q45 0 76.5 -33.5t31.5 -79.5q0 -174 -170 -412h-90q109 213 123 306q-36 9 -60 38t-24 68zM442 90q0 46 33.5 79.5t79.5 33.5q45 0 77 -33.5t32 -79.5q0 -174 -170 -412h-91q109 213 123 306q-36 9 -60 38t-24 68z" />
    <glyph glyph-name="dagger" unicode="&#x2020;" horiz-adv-x="1036" 
d="M592 -383h-166v1323h-373v141h373v383h166v-383h391v-141h-391v-1323z" />
    <glyph glyph-name="daggerdbl" unicode="&#x2021;" horiz-adv-x="1036" 
d="M53 0v141h373v799h-373v141h373v383h166v-383h391v-141h-391v-799h393v-141h-393v-383h-166v383h-373z" />
    <glyph glyph-name="bullet" unicode="&#x2022;" horiz-adv-x="1163" 
d="M180 600q0 166 118 283.5t284 117.5t283.5 -117.5t117.5 -283.5t-117.5 -283.5t-283.5 -117.5t-284 117.5t-118 283.5z" />
    <glyph glyph-name="ellipsis" unicode="&#x2026;" horiz-adv-x="1228" 
d="M94 90q0 46 33.5 79.5t79.5 33.5q45 0 76.5 -33.5t31.5 -79.5t-31 -78t-77 -32t-79.5 32.5t-33.5 77.5zM504 90q0 46 33 79.5t79 33.5q45 0 77 -33.5t32 -79.5t-31.5 -78t-77.5 -32t-79 32t-33 78zM913 90q0 46 33.5 79.5t79.5 33.5q45 0 77 -33.5t32 -79.5t-31.5 -78
t-77.5 -32t-79.5 32.5t-33.5 77.5z" />
    <glyph glyph-name="perthousand" unicode="&#x2030;" horiz-adv-x="2539" 
d="M90 1124q0 141 100 240.5t240 99.5q141 0 240.5 -99.5t99.5 -240.5q0 -140 -99.5 -240t-240.5 -100q-140 0 -240 100t-100 240zM233 1124q0 -81 58.5 -138.5t138.5 -57.5q82 0 139.5 57t57.5 139t-57.5 139.5t-139.5 57.5q-80 0 -138.5 -58t-58.5 -139zM1251 1481h166
l-925 -1501h-166zM983 322q0 140 99.5 238.5t240.5 98.5q140 0 239 -99t99 -238q0 -141 -99.5 -241.5t-238.5 -100.5q-141 0 -240.5 100.5t-99.5 241.5zM1126 322q0 -82 57.5 -139.5t139.5 -57.5t139.5 57.5t57.5 139.5q0 80 -58 138t-139 58t-139 -58t-58 -138zM1769 322
q0 139 100 238t240 99q141 0 240.5 -98.5t99.5 -238.5q0 -141 -99.5 -241.5t-240.5 -100.5q-140 0 -240 100.5t-100 241.5zM1915 322q0 -82 57 -139.5t137 -57.5q82 0 139.5 57.5t57.5 139.5q0 80 -58 138t-139 58q-79 0 -136.5 -58t-57.5 -138z" />
    <glyph glyph-name="guilsinglleft" unicode="&#x2039;" horiz-adv-x="452" 
d="M416 1006l-209 -406l209 -412h-160l-219 406l219 412h160z" />
    <glyph glyph-name="guilsinglright" unicode="&#x203a;" horiz-adv-x="452" 
d="M244 600l-207 406h158l221 -412l-221 -406h-158z" />
    <glyph glyph-name="fraction" unicode="&#x2044;" horiz-adv-x="1089" 
d="M924 1481h166l-924 -1501h-166z" />
    <glyph glyph-name="Euro" unicode="&#x20ac;" 
d="M684 504h-256q4 -210 64 -293.5t188 -83.5q67 0 124 24.5t93 67.5l160 -31q-54 -101 -152 -154.5t-225 -53.5q-98 0 -171 27t-128.5 86.5t-85 162t-33.5 248.5h-106v145h106v182h-106v146h106q12 272 117 388t301 116q127 0 225 -54t152 -155l-160 -31q-36 43 -93 67.5
t-124 24.5q-125 0 -185 -79t-67 -277h436l-55 -146h-385v-182h317z" />
    <glyph glyph-name="trademark" unicode="&#x2122;" horiz-adv-x="1277" 
d="M37 1364v100h493v-100h-200v-559h-113v559h-180zM1094 1253l-144 -299h-82l-145 299v-448h-113v659h131l168 -360l170 360h127v-659h-112v448z" />
    <glyph glyph-name="partialdiff" unicode="&#x2202;" horiz-adv-x="1114" 
d="M557 1100q76 0 152 -29q-40 67 -82 129l-187 266l144 70l186 -264q136 -192 188 -349t52 -360v-18q0 -565 -453 -565q-121 0 -210 40.5t-142 116.5t-78 177.5t-25 230.5q0 126 25 225t78 174t142 115.5t210 40.5zM557 119q147 0 218 110t71 310q0 201 -71 311.5
t-218 110.5t-219 -110.5t-72 -311.5q0 -200 72 -310t219 -110z" />
    <glyph glyph-name="product" unicode="&#x220f;" horiz-adv-x="1179" 
d="M162 1464h856v-1464h-166v1327h-524v-1327h-166v1464z" />
    <glyph glyph-name="summation" unicode="&#x2211;" horiz-adv-x="1056" 
d="M90 137l537 608l-537 584v135h887v-137h-668l455 -481v-193l-451 -516h699v-137h-922v137z" />
    <glyph glyph-name="minus" unicode="&#x2212;" 
d="M154 586v145h845v-145h-845z" />
    <glyph glyph-name="radical" unicode="&#x221a;" horiz-adv-x="1146" 
d="M922 1464h161l-503 -1464h-158l-369 1081h178l271 -864z" />
    <glyph glyph-name="infinity" unicode="&#x221e;" horiz-adv-x="1255" 
d="M109 647q0 119 84 204t204 85q70 0 130.5 -31t99.5 -86q89 117 233 117q118 0 203.5 -85t85.5 -204q0 -120 -85 -205.5t-204 -85.5q-144 0 -233 117q-39 -55 -99.5 -86t-130.5 -31q-120 0 -204 85.5t-84 205.5zM692 647q0 -69 49.5 -118.5t118.5 -49.5t118.5 49.5
t49.5 118.5t-49.5 118.5t-118.5 49.5t-118.5 -49.5t-49.5 -118.5zM231 647q0 -69 49 -118.5t117 -49.5q69 0 118.5 49.5t49.5 118.5t-49.5 118.5t-118.5 49.5q-68 0 -117 -49.5t-49 -118.5z" />
    <glyph glyph-name="integral" unicode="&#x222b;" 
d="M485 -66v1207q0 183 86 261.5t263 78.5q34 0 102 -15v-145q-47 14 -113 14q-91 0 -131.5 -42t-40.5 -148v-1206q0 -182 -85.5 -260t-260.5 -78q-55 0 -102 14v143q63 -14 112 -14q90 0 130 42t40 148z" />
    <glyph glyph-name="approxequal" unicode="&#x2248;" 
d="M776 750q-41 0 -98.5 23.5t-105 51t-101.5 51t-88 23.5q-106 0 -158 -127h-114q24 105 101 178.5t173 73.5q46 0 105.5 -22.5t106.5 -49t99 -49t84 -22.5q56 0 87.5 32t56.5 95h120q-24 -110 -97 -184t-171 -74zM776 389q-52 0 -128.5 37.5t-149 75t-115.5 37.5
q-106 0 -158 -127h-114q24 105 101 178.5t173 73.5q58 0 136 -36t148.5 -72t110.5 -36q56 0 87.5 32t56.5 95h120q-24 -110 -97 -184t-171 -74z" />
    <glyph glyph-name="notequal" unicode="&#x2260;" 
d="M154 750v145h475l205 360h165l-204 -360h204v-145h-288l-103 -183h391v-145h-475l-205 -361h-165l204 361h-204v145h288l103 183h-391z" />
    <glyph glyph-name="lessequal" unicode="&#x2264;" 
d="M154 0v145h845v-145h-845zM295 682l704 -305v-176l-845 374v203l845 385v-159z" />
    <glyph glyph-name="greaterequal" unicode="&#x2265;" 
d="M999 145v-145h-845v145h845zM154 377l704 305l-704 322v159l845 -385v-203l-845 -374v176z" />
    <glyph glyph-name="lozenge" unicode="&#x25ca;" horiz-adv-x="1003" 
d="M950 735l-370 -735h-158l-369 735l369 729h158zM788 735l-286 563l-271 -563l271 -571z" />
    <glyph glyph-name="fi" unicode="&#xfb01;" horiz-adv-x="1019" 
d="M520 1522q36 0 103 -15v-145q-47 14 -113 14q-91 0 -131.5 -42t-40.5 -148v-105h211v-139h-211v-942h-166v942h-154v139h154v101q0 183 86 261.5t262 78.5zM709 1081h165v-1081h-165v1081zM690 1378q0 41 31 72t72 31t71.5 -31t30.5 -72t-30.5 -71.5t-71.5 -30.5
t-72 30.5t-31 71.5z" />
    <glyph glyph-name="fl" unicode="&#xfb02;" horiz-adv-x="1019" 
d="M520 1522q36 0 103 -15v-145q-47 14 -113 14q-91 0 -131.5 -42t-40.5 -148v-105h211v-139h-211v-942h-166v942h-154v139h154v101q0 183 86 261.5t262 78.5zM709 1464l165 72v-1536h-165v1464z" />
    </font>
</defs>
</svg>
